<?xml version="1.0"?>


<svg viewBox="0 0 736 455" preserveAspectRatio="xMinYMin meet" version="1.1" xmlns="http://www.w3.org/2000/svg" width="736" height="455">
<g id="Axis">
<line x1="0" y1="227.5005" x2="736" y2="227.5005" stroke="#D4D4D4" stroke-opacity="1" stroke-width="1" stroke-linecap="round" fill="none"></line>
<line x1="0" y1="0" x2="0" y2="455" stroke="#D4D4D4" stroke-opacity="1" stroke-width="1" stroke-linecap="round" fill="none"></line>
</g>
<g id="am">
<polyline stroke="#1472F0" stroke-opacity="0.6431373" stroke-linecap="round" stroke-linejoin="round" stroke-width="3" fill="none" points="0,227.5005 1.47495,171.1862 2.9499,118.4245 4.42485,72.54376 5.8998,36.43839 7.37475,12.38605 8.8497,1.904092 10.32465,5.653764 11.7996,23.39851 13.27455,54.01892 14.7495,95.58332 16.22445,145.4697 17.6994,200.5308 19.17435,257.2934 20.6493,312.1765 22.12425,361.7179 23.5992,402.7922 25.07415,432.8084 26.5491,449.8728 28.02405,452.909 29.499,441.7255 30.97395,417.0276 32.4489,380.3736 33.92385,334.0757 35.3988,281.0545 36.87375,224.6549 38.3487,168.4348 39.82365,115.9409 41.2986,70.48462 42.77355,34.93361 44.2485,11.53058 45.72345,1.751886 47.1984,6.214414 48.67335,24.63667 50.1483,55.85646 51.62325,97.90434 53.0982,148.1277 54.57315,203.3583 56.0481,260.1118 57.52305,314.8081 58.998,363.9967 60.47295,404.5745 61.9479,433.9816 63.42285,450.363 64.8978,452.6853 66.37275,440.8019 67.84769,415.4626 69.32265,378.2657 70.7976,331.5579 72.27254,278.2857 73.7475,221.8098 75.22245,165.6928 76.6974,113.475 78.17235,68.45037 79.64729,33.45937 81.12225,10.70934 82.5972,1.635459 84.07214,6.810155 85.5471,25.90698 87.02205,57.72121 88.49699,100.2459 89.97195,150.7983 91.44689,206.1895 92.92184,262.9251 94.3968,317.4259 95.87175,366.2539 97.3467,406.3286 98.82165,435.1221 100.2966,450.8179 101.7716,452.4259 103.2465,439.8446 104.7215,413.8676 106.1964,376.1338 107.6713,329.0236 109.1463,275.5088 110.6212,218.9655 112.0962,162.9606 113.5712,111.0271 115.0461,66.44134 116.521,32.01589 117.996,9.922476 119.4709,1.554851 120.9459,7.440879 122.4208,27.20926 123.8958,59.61289 125.3708,102.6076 126.8457,153.4812 128.3206,209.0242 129.7956,265.7327 131.2706,320.0294 132.7455,368.489 134.2204,408.0544 135.6954,436.2297 137.1703,451.2374 138.6453,452.1308 140.1202,438.8535 141.5952,412.2432 143.0701,373.9784 144.5451,326.4732 146.0201,272.7243 147.495,224.0872 148.9699,207.322 150.4449,191.8297 151.9198,178.5877 153.3948,168.4314 154.8698,162.0014 156.3447,159.7034 157.8196,161.6823 159.2946,167.8134 160.7695,177.7097 162.2445,190.7471 163.7194,206.1031 165.1944,222.8089 166.6693,239.8107 168.1443,256.0359 169.6192,270.4609 171.0942,282.1759 172.5691,290.4417 174.0441,294.7368 175.519,294.7904 176.994,290.5991 178.4689,282.4272 179.9439,270.7903 181.4188,256.4225 182.8938,240.2302 184.3687,223.2348 185.8437,206.5085 187.3186,191.1066 188.7936,178.0004 190.2686,168.017 191.7435,161.7861 193.2184,159.7007 194.6934,161.8925 196.1684,168.223 197.6433,178.2931 199.1183,191.4674 200.5932,206.9148 202.0681,223.6609 203.5431,240.6492 205.0181,256.808 206.493,271.118 207.968,282.6764 209.4429,290.754 210.9178,294.8414 212.3928,294.6805 213.8678,290.2817 215.3427,281.9224 216.8176,270.1299 218.2926,255.6481 219.7675,239.3907 221.2425,210.4426 222.7175,154.827 224.1924,103.7959 225.6673,60.56871 227.1423,27.87231 228.6172,7.769335 230.0922,1.527977 231.5672,9.541969 233.0421,31.30576 234.517,65.44638 235.992,109.8101 237.4669,161.5983 238.9419,217.5438 240.4168,274.1175 241.8918,327.7504 243.3667,375.0591 244.8417,413.0591 246.3167,439.3532 247.7916,452.2828 249.2665,451.0321 250.7415,435.6801 252.2164,407.1951 253.6914,367.3742 255.1664,318.7295 256.6413,264.3297 258.1162,207.6064 259.5912,152.1382 261.0661,101.4242 262.5411,58.6637 264.0161,26.55414 265.491,7.121153 266.9659,1.590683 268.4409,10.3116 269.9158,32.73377 271.3908,67.44269 272.8658,112.2488 274.3407,164.3254 275.8156,220.3875 277.2906,276.8983 278.7655,330.2928 280.2405,377.2027 281.7155,414.6688 283.1904,440.3275 284.6653,452.5601 286.1403,450.5949 287.6152,434.556 289.0902,405.4551 290.5652,365.128 292.0401,316.1188 293.515,261.5191 294.99,204.7734 296.4649,149.4615 297.9399,99.07256 299.4148,56.78545 300.8898,25.26781 302.3647,6.5079 303.8397,1.689194 305.3146,11.11567 306.7896,34.19266 308.2645,69.46436 309.7395,114.7057 311.2144,167.0626 312.6894,223.2323 314.1643,279.6711 315.6393,332.8189 317.1142,379.3227 318.5892,416.2488 320.0641,441.2679 321.5391,452.8016 323.014,450.1223 324.489,433.3991 325.9639,403.6868 327.4389,362.86 328.9138,313.494 330.3888,258.7032 331.8637,201.944 333.3387,146.7971 334.8136,96.74123 336.2886,54.93427 337.7635,24.01355 339.2385,5.929698 340.7134,1.82351 342.1884,11.95404 343.6633,35.68219 345.1383,71.5111 346.6132,117.1805 348.0882,169.8094 349.5631,226.0777 351.0381,282.4358 352.513,335.3283 353.988,381.4185 355.4629,417.799 356.9379,442.1745 358.4128,453.0075 359.8878,449.6145 361.3627,432.2095 362.8377,401.8907 364.3126,360.5705 365.7876,310.8556 367.2625,255.8824 368.7375,218.986 370.2124,202.494 371.6874,187.5796 373.1623,175.1835 374.6373,166.0878 376.1122,160.8664 377.5872,159.8485 379.0622,163.0984 380.5371,170.411 382.0121,181.3251 383.487,195.1522 384.9619,211.02 386.4369,227.9274 387.9119,244.8079 389.3868,260.5966 390.8618,274.2974 392.3367,285.0461 393.8116,292.1645 395.2866,295.2036 396.7616,293.9718 398.2365,288.5467 399.7115,279.2704 401.1864,266.7283 402.6613,251.7116 404.1363,235.1675 405.6112,218.1397 407.0862,201.7025 408.5612,186.8927 410.0361,174.6447 411.511,165.731 412.986,160.714 414.4609,159.9102 415.9359,163.3703 417.4109,170.8761 418.8858,181.9539 420.3607,195.905 421.8357,211.8494 423.3106,228.781 424.7856,245.6319 426.2606,261.339 427.7355,274.9114 429.2104,285.4929 430.6854,292.416 432.1603,295.244 433.6353,293.7983 435.1103,288.1704 436.5852,278.7151 438.0602,266.029 439.5351,250.9123 441.01,234.3187 442.485,217.295 443.96,200.9151 445.4349,186.2123 446.9099,174.1142 448.3848,165.3839 449.8597,160.5722 451.3347,159.9827 452.8096,163.6525 454.2846,171.3501 455.7596,182.5899 457.2345,196.6629 458.7094,212.6812 460.1844,229.6345 461.6593,246.4531 463.1343,262.0761 464.6093,275.5179 466.0842,285.9306 467.5591,292.6572 469.0341,295.2735 470.509,293.6144 471.984,287.7845 473.459,278.1516 474.9339,265.3234 476.4088,250.1092 477.8838,233.4688 479.3587,216.4518 480.8337,200.1319 482.3087,185.5385 483.7836,173.5922 485.2585,165.0467 486.7335,160.4411 488.2084,160.0659 489.6834,163.9447 491.1584,171.833 492.6333,183.233 494.1082,197.4256 495.5832,213.5155 497.0581,230.4876 498.5331,247.2712 500.008,262.8077 501.483,276.1168 502.9579,286.359 504.4329,292.8881 505.9078,295.2923 507.3828,293.4199 508.8577,287.389 510.3327,277.5801 511.8076,264.6119 513.2826,249.3026 514.7576,232.6179 516.2325,187.8668 517.7075,133.6754 519.1824,85.40282 520.6573,46.09445 522.1323,18.22998 523.6072,3.567236 525.0822,3.031184 526.5571,16.65565 528.0321,43.58116 529.507,82.10912 530.982,129.809 532.4569,183.6717 533.9319,240.2993 535.4069,296.1196 536.8818,347.611 538.3568,391.5253 539.8317,425.0922 541.3066,446.1942 542.7816,453.5 544.2565,446.5487 545.7315,425.779 547.2064,392.5009 548.6814,348.8139 550.1563,297.4739 551.6313,241.7197 553.1063,185.0684 554.5812,131.094 556.0562,83.20131 557.5311,44.41168 559.006,17.1721 560.481,3.200982 561.9559,3.379657 563.4309,17.69689 564.9058,45.24945 566.3808,84.29924 567.8557,132.3828 569.3307,186.4668 570.8056,243.1394 572.2806,298.8254 573.7556,350.0119 575.2305,393.4699 576.7054,426.4578 578.1804,446.8946 579.6553,453.491 581.1303,445.831 582.6052,424.3977 584.0802,390.5432 585.5551,346.4034 587.0301,294.7625 588.505,238.8785 589.98,213.9334 591.455,197.8088 592.9299,183.5572 594.4048,172.0778 595.8798,164.0947 597.3547,160.1115 598.8297,160.3795 600.3046,164.8818 601.7796,173.3344 603.2545,185.204 604.7295,199.7419 606.2044,216.0309 607.6794,233.0435 609.1544,249.7064 610.6293,264.9684 612.1042,277.8669 613.5792,287.588 615.0541,293.5185 616.5291,295.2843 618.004,292.774 619.479,286.1459 620.9539,275.8183 622.4289,262.4426 623.9038,246.8625 625.3788,230.0611 626.8537,213.0981 628.3287,197.0436 629.8036,182.9106 631.2786,171.5904 632.7535,163.7973 634.2285,160.0229 635.7034,160.5053 637.1783,165.2141 638.6533,173.8521 640.1283,185.8746 641.6032,200.5229 643.0782,216.8732 644.5531,233.8939 646.0281,250.5112 647.5031,265.6769 648.978,278.4344 650.4529,287.9786 651.9279,293.7077 653.4028,295.2601 654.8777,292.5379 656.3527,285.7129 657.8277,275.2156 659.3026,261.7082 660.7776,246.0429 662.2525,229.2078 663.7275,212.265 665.2024,196.2834 666.6774,182.271 668.1523,171.112 669.6273,163.5101 671.1022,159.9451 672.5771,160.6418 674.0521,165.5562 675.5271,174.3784 677.002,186.5517 678.477,201.3083 679.9519,217.7172 681.4269,234.7432 682.9018,251.3124 684.3768,266.3794 685.8517,278.9938 687.3267,288.3597 688.8016,293.8864 690.2766,295.2252 691.7515,292.2915 693.2264,285.2706 694.7014,274.6053 696.1764,260.9684 697.6513,245.2203 699.1263,228.3542 700.6012,211.4344 702.0762,195.528 703.5511,181.6386 705.0261,170.6424 706.501,163.2331 707.976,159.878 709.4509,160.7889 710.9258,165.9082 712.4008,174.9131 713.8758,187.2354 715.3507,202.0978 716.8257,218.5627 718.3006,235.5915 719.7756,252.1098 721.2505,267.0757 722.7255,279.545 724.2004,288.7312 725.6754,294.0546 727.1503,295.1795 728.6252,292.0349 730.1002,284.8192 731.5751,273.9876 733.0501,260.2234 734.5251,244.3948 736,227.5005 "></polyline>
<polygon fill="url(#grad0)" stroke="none" points="0,227.5005 0,227.5005 0,227.5005 1.47495,171.1862 2.9499,118.4245 4.42485,72.54376 5.8998,36.43839 7.37475,12.38605 8.8497,1.904092 10.32465,5.653764 11.7996,23.39851 13.27455,54.01892 14.7495,95.58332 16.22445,145.4697 17.6994,200.5308 19.17435,257.2934 20.6493,312.1765 22.12425,361.7179 23.5992,402.7922 25.07415,432.8084 26.5491,449.8728 28.02405,452.909 29.499,441.7255 30.97395,417.0276 32.4489,380.3736 33.92385,334.0757 35.3988,281.0545 36.87375,224.6549 38.3487,168.4348 39.82365,115.9409 41.2986,70.48462 42.77355,34.93361 44.2485,11.53058 45.72345,1.751886 47.1984,6.214414 48.67335,24.63667 50.1483,55.85646 51.62325,97.90434 53.0982,148.1277 54.57315,203.3583 56.0481,260.1118 57.52305,314.8081 58.998,363.9967 60.47295,404.5745 61.9479,433.9816 63.42285,450.363 64.8978,452.6853 66.37275,440.8019 67.84769,415.4626 69.32265,378.2657 70.7976,331.5579 72.27254,278.2857 73.7475,221.8098 75.22245,165.6928 76.6974,113.475 78.17235,68.45037 79.64729,33.45937 81.12225,10.70934 82.5972,1.635459 84.07214,6.810155 85.5471,25.90698 87.02205,57.72121 88.49699,100.2459 89.97195,150.7983 91.44689,206.1895 92.92184,262.9251 94.3968,317.4259 95.87175,366.2539 97.3467,406.3286 98.82165,435.1221 100.2966,450.8179 101.7716,452.4259 103.2465,439.8446 104.7215,413.8676 106.1964,376.1338 107.6713,329.0236 109.1463,275.5088 110.6212,218.9655 112.0962,162.9606 113.5712,111.0271 115.0461,66.44134 116.521,32.01589 117.996,9.922476 119.4709,1.554851 120.9459,7.440879 122.4208,27.20926 123.8958,59.61289 125.3708,102.6076 126.8457,153.4812 128.3206,209.0242 129.7956,265.7327 131.2706,320.0294 132.7455,368.489 134.2204,408.0544 135.6954,436.2297 137.1703,451.2374 138.6453,452.1308 140.1202,438.8535 141.5952,412.2432 143.0701,373.9784 144.5451,326.4732 146.0201,272.7243 147.495,224.0872 148.9699,207.322 150.4449,191.8297 151.9198,178.5877 153.3948,168.4314 154.8698,162.0014 156.3447,159.7034 157.8196,161.6823 159.2946,167.8134 160.7695,177.7097 162.2445,190.7471 163.7194,206.1031 165.1944,222.8089 166.6693,239.8107 168.1443,256.0359 169.6192,270.4609 171.0942,282.1759 172.5691,290.4417 174.0441,294.7368 175.519,294.7904 176.994,290.5991 178.4689,282.4272 179.9439,270.7903 181.4188,256.4225 182.8938,240.2302 184.3687,223.2348 185.8437,206.5085 187.3186,191.1066 188.7936,178.0004 190.2686,168.017 191.7435,161.7861 193.2184,159.7007 194.6934,161.8925 196.1684,168.223 197.6433,178.2931 199.1183,191.4674 200.5932,206.9148 202.0681,223.6609 203.5431,240.6492 205.0181,256.808 206.493,271.118 207.968,282.6764 209.4429,290.754 210.9178,294.8414 212.3928,294.6805 213.8678,290.2817 215.3427,281.9224 216.8176,270.1299 218.2926,255.6481 219.7675,239.3907 221.2425,210.4426 222.7175,154.827 224.1924,103.7959 225.6673,60.56871 227.1423,27.87231 228.6172,7.769335 230.0922,1.527977 231.5672,9.541969 233.0421,31.30576 234.517,65.44638 235.992,109.8101 237.4669,161.5983 238.9419,217.5438 240.4168,274.1175 241.8918,327.7504 243.3667,375.0591 244.8417,413.0591 246.3167,439.3532 247.7916,452.2828 249.2665,451.0321 250.7415,435.6801 252.2164,407.1951 253.6914,367.3742 255.1664,318.7295 256.6413,264.3297 258.1162,207.6064 259.5912,152.1382 261.0661,101.4242 262.5411,58.6637 264.0161,26.55414 265.491,7.121153 266.9659,1.590683 268.4409,10.3116 269.9158,32.73377 271.3908,67.44269 272.8658,112.2488 274.3407,164.3254 275.8156,220.3875 277.2906,276.8983 278.7655,330.2928 280.2405,377.2027 281.7155,414.6688 283.1904,440.3275 284.6653,452.5601 286.1403,450.5949 287.6152,434.556 289.0902,405.4551 290.5652,365.128 292.0401,316.1188 293.515,261.5191 294.99,204.7734 296.4649,149.4615 297.9399,99.07256 299.4148,56.78545 300.8898,25.26781 302.3647,6.5079 303.8397,1.689194 305.3146,11.11567 306.7896,34.19266 308.2645,69.46436 309.7395,114.7057 311.2144,167.0626 312.6894,223.2323 314.1643,279.6711 315.6393,332.8189 317.1142,379.3227 318.5892,416.2488 320.0641,441.2679 321.5391,452.8016 323.014,450.1223 324.489,433.3991 325.9639,403.6868 327.4389,362.86 328.9138,313.494 330.3888,258.7032 331.8637,201.944 333.3387,146.7971 334.8136,96.74123 336.2886,54.93427 337.7635,24.01355 339.2385,5.929698 340.7134,1.82351 342.1884,11.95404 343.6633,35.68219 345.1383,71.5111 346.6132,117.1805 348.0882,169.8094 349.5631,226.0777 351.0381,282.4358 352.513,335.3283 353.988,381.4185 355.4629,417.799 356.9379,442.1745 358.4128,453.0075 359.8878,449.6145 361.3627,432.2095 362.8377,401.8907 364.3126,360.5705 365.7876,310.8556 367.2625,255.8824 368.7375,218.986 370.2124,202.494 371.6874,187.5796 373.1623,175.1835 374.6373,166.0878 376.1122,160.8664 377.5872,159.8485 379.0622,163.0984 380.5371,170.411 382.0121,181.3251 383.487,195.1522 384.9619,211.02 386.4369,227.9274 387.9119,244.8079 389.3868,260.5966 390.8618,274.2974 392.3367,285.0461 393.8116,292.1645 395.2866,295.2036 396.7616,293.9718 398.2365,288.5467 399.7115,279.2704 401.1864,266.7283 402.6613,251.7116 404.1363,235.1675 405.6112,218.1397 407.0862,201.7025 408.5612,186.8927 410.0361,174.6447 411.511,165.731 412.986,160.714 414.4609,159.9102 415.9359,163.3703 417.4109,170.8761 418.8858,181.9539 420.3607,195.905 421.8357,211.8494 423.3106,228.781 424.7856,245.6319 426.2606,261.339 427.7355,274.9114 429.2104,285.4929 430.6854,292.416 432.1603,295.244 433.6353,293.7983 435.1103,288.1704 436.5852,278.7151 438.0602,266.029 439.5351,250.9123 441.01,234.3187 442.485,217.295 443.96,200.9151 445.4349,186.2123 446.9099,174.1142 448.3848,165.3839 449.8597,160.5722 451.3347,159.9827 452.8096,163.6525 454.2846,171.3501 455.7596,182.5899 457.2345,196.6629 458.7094,212.6812 460.1844,229.6345 461.6593,246.4531 463.1343,262.0761 464.6093,275.5179 466.0842,285.9306 467.5591,292.6572 469.0341,295.2735 470.509,293.6144 471.984,287.7845 473.459,278.1516 474.9339,265.3234 476.4088,250.1092 477.8838,233.4688 479.3587,216.4518 480.8337,200.1319 482.3087,185.5385 483.7836,173.5922 485.2585,165.0467 486.7335,160.4411 488.2084,160.0659 489.6834,163.9447 491.1584,171.833 492.6333,183.233 494.1082,197.4256 495.5832,213.5155 497.0581,230.4876 498.5331,247.2712 500.008,262.8077 501.483,276.1168 502.9579,286.359 504.4329,292.8881 505.9078,295.2923 507.3828,293.4199 508.8577,287.389 510.3327,277.5801 511.8076,264.6119 513.2826,249.3026 514.7576,232.6179 516.2325,187.8668 517.7075,133.6754 519.1824,85.40282 520.6573,46.09445 522.1323,18.22998 523.6072,3.567236 525.0822,3.031184 526.5571,16.65565 528.0321,43.58116 529.507,82.10912 530.982,129.809 532.4569,183.6717 533.9319,240.2993 535.4069,296.1196 536.8818,347.611 538.3568,391.5253 539.8317,425.0922 541.3066,446.1942 542.7816,453.5 544.2565,446.5487 545.7315,425.779 547.2064,392.5009 548.6814,348.8139 550.1563,297.4739 551.6313,241.7197 553.1063,185.0684 554.5812,131.094 556.0562,83.20131 557.5311,44.41168 559.006,17.1721 560.481,3.200982 561.9559,3.379657 563.4309,17.69689 564.9058,45.24945 566.3808,84.29924 567.8557,132.3828 569.3307,186.4668 570.8056,243.1394 572.2806,298.8254 573.7556,350.0119 575.2305,393.4699 576.7054,426.4578 578.1804,446.8946 579.6553,453.491 581.1303,445.831 582.6052,424.3977 584.0802,390.5432 585.5551,346.4034 587.0301,294.7625 588.505,238.8785 589.98,213.9334 591.455,197.8088 592.9299,183.5572 594.4048,172.0778 595.8798,164.0947 597.3547,160.1115 598.8297,160.3795 600.3046,164.8818 601.7796,173.3344 603.2545,185.204 604.7295,199.7419 606.2044,216.0309 607.6794,233.0435 609.1544,249.7064 610.6293,264.9684 612.1042,277.8669 613.5792,287.588 615.0541,293.5185 616.5291,295.2843 618.004,292.774 619.479,286.1459 620.9539,275.8183 622.4289,262.4426 623.9038,246.8625 625.3788,230.0611 626.8537,213.0981 628.3287,197.0436 629.8036,182.9106 631.2786,171.5904 632.7535,163.7973 634.2285,160.0229 635.7034,160.5053 637.1783,165.2141 638.6533,173.8521 640.1283,185.8746 641.6032,200.5229 643.0782,216.8732 644.5531,233.8939 646.0281,250.5112 647.5031,265.6769 648.978,278.4344 650.4529,287.9786 651.9279,293.7077 653.4028,295.2601 654.8777,292.5379 656.3527,285.7129 657.8277,275.2156 659.3026,261.7082 660.7776,246.0429 662.2525,229.2078 663.7275,212.265 665.2024,196.2834 666.6774,182.271 668.1523,171.112 669.6273,163.5101 671.1022,159.9451 672.5771,160.6418 674.0521,165.5562 675.5271,174.3784 677.002,186.5517 678.477,201.3083 679.9519,217.7172 681.4269,234.7432 682.9018,251.3124 684.3768,266.3794 685.8517,278.9938 687.3267,288.3597 688.8016,293.8864 690.2766,295.2252 691.7515,292.2915 693.2264,285.2706 694.7014,274.6053 696.1764,260.9684 697.6513,245.2203 699.1263,228.3542 700.6012,211.4344 702.0762,195.528 703.5511,181.6386 705.0261,170.6424 706.501,163.2331 707.976,159.878 709.4509,160.7889 710.9258,165.9082 712.4008,174.9131 713.8758,187.2354 715.3507,202.0978 716.8257,218.5627 718.3006,235.5915 719.7756,252.1098 721.2505,267.0757 722.7255,279.545 724.2004,288.7312 725.6754,294.0546 727.1503,295.1795 728.6252,292.0349 730.1002,284.8192 731.5751,273.9876 733.0501,260.2234 734.5251,244.3948 736,227.5005 736,227.5005 "></polygon>
</g>
<g id="data">
<polyline stroke="#9400D3" stroke-opacity="0.6431373" stroke-linecap="round" stroke-linejoin="round" stroke-width="3" fill="none" points="0,1.499985 1.47495,1.499985 2.9499,1.499985 4.42485,1.499985 5.8998,1.499985 7.37475,1.499985 8.8497,1.499985 10.32465,1.499985 11.7996,1.499985 13.27455,1.499985 14.7495,1.499985 16.22445,1.499985 17.6994,1.499985 19.17435,1.499985 20.6493,1.499985 22.12425,1.499985 23.5992,1.499985 25.07415,1.499985 26.5491,1.499985 28.02405,1.499985 29.499,1.499985 30.97395,1.499985 32.4489,1.499985 33.92385,1.499985 35.3988,1.499985 36.87375,1.499985 38.3487,1.499985 39.82365,1.499985 41.2986,1.499985 42.77355,1.499985 44.2485,1.499985 45.72345,1.499985 47.1984,1.499985 48.67335,1.499985 50.1483,1.499985 51.62325,1.499985 53.0982,1.499985 54.57315,1.499985 56.0481,1.499985 57.52305,1.499985 58.998,1.499985 60.47295,1.499985 61.9479,1.499985 63.42285,1.499985 64.8978,1.499985 66.37275,1.499985 67.84769,1.499985 69.32265,1.499985 70.7976,1.499985 72.27254,1.499985 73.7475,1.499985 75.22245,1.499985 76.6974,1.499985 78.17235,1.499985 79.64729,1.499985 81.12225,1.499985 82.5972,1.499985 84.07214,1.499985 85.5471,1.499985 87.02205,1.499985 88.49699,1.499985 89.97195,1.499985 91.44689,1.499985 92.92184,1.499985 94.3968,1.499985 95.87175,1.499985 97.3467,1.499985 98.82165,1.499985 100.2966,1.499985 101.7716,1.499985 103.2465,1.499985 104.7215,1.499985 106.1964,1.499985 107.6713,1.499985 109.1463,1.499985 110.6212,1.499985 112.0962,1.499985 113.5712,1.499985 115.0461,1.499985 116.521,1.499985 117.996,1.499985 119.4709,1.499985 120.9459,1.499985 122.4208,1.499985 123.8958,1.499985 125.3708,1.499985 126.8457,1.499985 128.3206,1.499985 129.7956,1.499985 131.2706,1.499985 132.7455,1.499985 134.2204,1.499985 135.6954,1.499985 137.1703,1.499985 138.6453,1.499985 140.1202,1.499985 141.5952,1.499985 143.0701,1.499985 144.5451,1.499985 146.0201,1.499985 147.495,227.5005 148.9699,227.5005 150.4449,227.5005 151.9198,227.5005 153.3948,227.5005 154.8698,227.5005 156.3447,227.5005 157.8196,227.5005 159.2946,227.5005 160.7695,227.5005 162.2445,227.5005 163.7194,227.5005 165.1944,227.5005 166.6693,227.5005 168.1443,227.5005 169.6192,227.5005 171.0942,227.5005 172.5691,227.5005 174.0441,227.5005 175.519,227.5005 176.994,227.5005 178.4689,227.5005 179.9439,227.5005 181.4188,227.5005 182.8938,227.5005 184.3687,227.5005 185.8437,227.5005 187.3186,227.5005 188.7936,227.5005 190.2686,227.5005 191.7435,227.5005 193.2184,227.5005 194.6934,227.5005 196.1684,227.5005 197.6433,227.5005 199.1183,227.5005 200.5932,227.5005 202.0681,227.5005 203.5431,227.5005 205.0181,227.5005 206.493,227.5005 207.968,227.5005 209.4429,227.5005 210.9178,227.5005 212.3928,227.5005 213.8678,227.5005 215.3427,227.5005 216.8176,227.5005 218.2926,227.5005 219.7675,227.5005 221.2425,1.499985 222.7175,1.499985 224.1924,1.499985 225.6673,1.499985 227.1423,1.499985 228.6172,1.499985 230.0922,1.499985 231.5672,1.499985 233.0421,1.499985 234.517,1.499985 235.992,1.499985 237.4669,1.499985 238.9419,1.499985 240.4168,1.499985 241.8918,1.499985 243.3667,1.499985 244.8417,1.499985 246.3167,1.499985 247.7916,1.499985 249.2665,1.499985 250.7415,1.499985 252.2164,1.499985 253.6914,1.499985 255.1664,1.499985 256.6413,1.499985 258.1162,1.499985 259.5912,1.499985 261.0661,1.499985 262.5411,1.499985 264.0161,1.499985 265.491,1.499985 266.9659,1.499985 268.4409,1.499985 269.9158,1.499985 271.3908,1.499985 272.8658,1.499985 274.3407,1.499985 275.8156,1.499985 277.2906,1.499985 278.7655,1.499985 280.2405,1.499985 281.7155,1.499985 283.1904,1.499985 284.6653,1.499985 286.1403,1.499985 287.6152,1.499985 289.0902,1.499985 290.5652,1.499985 292.0401,1.499985 293.515,1.499985 294.99,1.499985 296.4649,1.499985 297.9399,1.499985 299.4148,1.499985 300.8898,1.499985 302.3647,1.499985 303.8397,1.499985 305.3146,1.499985 306.7896,1.499985 308.2645,1.499985 309.7395,1.499985 311.2144,1.499985 312.6894,1.499985 314.1643,1.499985 315.6393,1.499985 317.1142,1.499985 318.5892,1.499985 320.0641,1.499985 321.5391,1.499985 323.014,1.499985 324.489,1.499985 325.9639,1.499985 327.4389,1.499985 328.9138,1.499985 330.3888,1.499985 331.8637,1.499985 333.3387,1.499985 334.8136,1.499985 336.2886,1.499985 337.7635,1.499985 339.2385,1.499985 340.7134,1.499985 342.1884,1.499985 343.6633,1.499985 345.1383,1.499985 346.6132,1.499985 348.0882,1.499985 349.5631,1.499985 351.0381,1.499985 352.513,1.499985 353.988,1.499985 355.4629,1.499985 356.9379,1.499985 358.4128,1.499985 359.8878,1.499985 361.3627,1.499985 362.8377,1.499985 364.3126,1.499985 365.7876,1.499985 367.2625,1.499985 368.7375,227.5005 370.2124,227.5005 371.6874,227.5005 373.1623,227.5005 374.6373,227.5005 376.1122,227.5005 377.5872,227.5005 379.0622,227.5005 380.5371,227.5005 382.0121,227.5005 383.487,227.5005 384.9619,227.5005 386.4369,227.5005 387.9119,227.5005 389.3868,227.5005 390.8618,227.5005 392.3367,227.5005 393.8116,227.5005 395.2866,227.5005 396.7616,227.5005 398.2365,227.5005 399.7115,227.5005 401.1864,227.5005 402.6613,227.5005 404.1363,227.5005 405.6112,227.5005 407.0862,227.5005 408.5612,227.5005 410.0361,227.5005 411.511,227.5005 412.986,227.5005 414.4609,227.5005 415.9359,227.5005 417.4109,227.5005 418.8858,227.5005 420.3607,227.5005 421.8357,227.5005 423.3106,227.5005 424.7856,227.5005 426.2606,227.5005 427.7355,227.5005 429.2104,227.5005 430.6854,227.5005 432.1603,227.5005 433.6353,227.5005 435.1103,227.5005 436.5852,227.5005 438.0602,227.5005 439.5351,227.5005 441.01,227.5005 442.485,227.5005 443.96,227.5005 445.4349,227.5005 446.9099,227.5005 448.3848,227.5005 449.8597,227.5005 451.3347,227.5005 452.8096,227.5005 454.2846,227.5005 455.7596,227.5005 457.2345,227.5005 458.7094,227.5005 460.1844,227.5005 461.6593,227.5005 463.1343,227.5005 464.6093,227.5005 466.0842,227.5005 467.5591,227.5005 469.0341,227.5005 470.509,227.5005 471.984,227.5005 473.459,227.5005 474.9339,227.5005 476.4088,227.5005 477.8838,227.5005 479.3587,227.5005 480.8337,227.5005 482.3087,227.5005 483.7836,227.5005 485.2585,227.5005 486.7335,227.5005 488.2084,227.5005 489.6834,227.5005 491.1584,227.5005 492.6333,227.5005 494.1082,227.5005 495.5832,227.5005 497.0581,227.5005 498.5331,227.5005 500.008,227.5005 501.483,227.5005 502.9579,227.5005 504.4329,227.5005 505.9078,227.5005 507.3828,227.5005 508.8577,227.5005 510.3327,227.5005 511.8076,227.5005 513.2826,227.5005 514.7576,227.5005 516.2325,1.499985 517.7075,1.499985 519.1824,1.499985 520.6573,1.499985 522.1323,1.499985 523.6072,1.499985 525.0822,1.499985 526.5571,1.499985 528.0321,1.499985 529.507,1.499985 530.982,1.499985 532.4569,1.499985 533.9319,1.499985 535.4069,1.499985 536.8818,1.499985 538.3568,1.499985 539.8317,1.499985 541.3066,1.499985 542.7816,1.499985 544.2565,1.499985 545.7315,1.499985 547.2064,1.499985 548.6814,1.499985 550.1563,1.499985 551.6313,1.499985 553.1063,1.499985 554.5812,1.499985 556.0562,1.499985 557.5311,1.499985 559.006,1.499985 560.481,1.499985 561.9559,1.499985 563.4309,1.499985 564.9058,1.499985 566.3808,1.499985 567.8557,1.499985 569.3307,1.499985 570.8056,1.499985 572.2806,1.499985 573.7556,1.499985 575.2305,1.499985 576.7054,1.499985 578.1804,1.499985 579.6553,1.499985 581.1303,1.499985 582.6052,1.499985 584.0802,1.499985 585.5551,1.499985 587.0301,1.499985 588.505,1.499985 589.98,227.5005 591.455,227.5005 592.9299,227.5005 594.4048,227.5005 595.8798,227.5005 597.3547,227.5005 598.8297,227.5005 600.3046,227.5005 601.7796,227.5005 603.2545,227.5005 604.7295,227.5005 606.2044,227.5005 607.6794,227.5005 609.1544,227.5005 610.6293,227.5005 612.1042,227.5005 613.5792,227.5005 615.0541,227.5005 616.5291,227.5005 618.004,227.5005 619.479,227.5005 620.9539,227.5005 622.4289,227.5005 623.9038,227.5005 625.3788,227.5005 626.8537,227.5005 628.3287,227.5005 629.8036,227.5005 631.2786,227.5005 632.7535,227.5005 634.2285,227.5005 635.7034,227.5005 637.1783,227.5005 638.6533,227.5005 640.1283,227.5005 641.6032,227.5005 643.0782,227.5005 644.5531,227.5005 646.0281,227.5005 647.5031,227.5005 648.978,227.5005 650.4529,227.5005 651.9279,227.5005 653.4028,227.5005 654.8777,227.5005 656.3527,227.5005 657.8277,227.5005 659.3026,227.5005 660.7776,227.5005 662.2525,227.5005 663.7275,227.5005 665.2024,227.5005 666.6774,227.5005 668.1523,227.5005 669.6273,227.5005 671.1022,227.5005 672.5771,227.5005 674.0521,227.5005 675.5271,227.5005 677.002,227.5005 678.477,227.5005 679.9519,227.5005 681.4269,227.5005 682.9018,227.5005 684.3768,227.5005 685.8517,227.5005 687.3267,227.5005 688.8016,227.5005 690.2766,227.5005 691.7515,227.5005 693.2264,227.5005 694.7014,227.5005 696.1764,227.5005 697.6513,227.5005 699.1263,227.5005 700.6012,227.5005 702.0762,227.5005 703.5511,227.5005 705.0261,227.5005 706.501,227.5005 707.976,227.5005 709.4509,227.5005 710.9258,227.5005 712.4008,227.5005 713.8758,227.5005 715.3507,227.5005 716.8257,227.5005 718.3006,227.5005 719.7756,227.5005 721.2505,227.5005 722.7255,227.5005 724.2004,227.5005 725.6754,227.5005 727.1503,227.5005 728.6252,227.5005 730.1002,227.5005 731.5751,227.5005 733.0501,227.5005 734.5251,227.5005 736,227.5005 "></polyline>
<polygon fill="url(#grad1)" stroke="none" points="0,227.5005 0,1.499985 0,1.499985 1.47495,1.499985 2.9499,1.499985 4.42485,1.499985 5.8998,1.499985 7.37475,1.499985 8.8497,1.499985 10.32465,1.499985 11.7996,1.499985 13.27455,1.499985 14.7495,1.499985 16.22445,1.499985 17.6994,1.499985 19.17435,1.499985 20.6493,1.499985 22.12425,1.499985 23.5992,1.499985 25.07415,1.499985 26.5491,1.499985 28.02405,1.499985 29.499,1.499985 30.97395,1.499985 32.4489,1.499985 33.92385,1.499985 35.3988,1.499985 36.87375,1.499985 38.3487,1.499985 39.82365,1.499985 41.2986,1.499985 42.77355,1.499985 44.2485,1.499985 45.72345,1.499985 47.1984,1.499985 48.67335,1.499985 50.1483,1.499985 51.62325,1.499985 53.0982,1.499985 54.57315,1.499985 56.0481,1.499985 57.52305,1.499985 58.998,1.499985 60.47295,1.499985 61.9479,1.499985 63.42285,1.499985 64.8978,1.499985 66.37275,1.499985 67.84769,1.499985 69.32265,1.499985 70.7976,1.499985 72.27254,1.499985 73.7475,1.499985 75.22245,1.499985 76.6974,1.499985 78.17235,1.499985 79.64729,1.499985 81.12225,1.499985 82.5972,1.499985 84.07214,1.499985 85.5471,1.499985 87.02205,1.499985 88.49699,1.499985 89.97195,1.499985 91.44689,1.499985 92.92184,1.499985 94.3968,1.499985 95.87175,1.499985 97.3467,1.499985 98.82165,1.499985 100.2966,1.499985 101.7716,1.499985 103.2465,1.499985 104.7215,1.499985 106.1964,1.499985 107.6713,1.499985 109.1463,1.499985 110.6212,1.499985 112.0962,1.499985 113.5712,1.499985 115.0461,1.499985 116.521,1.499985 117.996,1.499985 119.4709,1.499985 120.9459,1.499985 122.4208,1.499985 123.8958,1.499985 125.3708,1.499985 126.8457,1.499985 128.3206,1.499985 129.7956,1.499985 131.2706,1.499985 132.7455,1.499985 134.2204,1.499985 135.6954,1.499985 137.1703,1.499985 138.6453,1.499985 140.1202,1.499985 141.5952,1.499985 143.0701,1.499985 144.5451,1.499985 146.0201,1.499985 147.495,227.5005 148.9699,227.5005 150.4449,227.5005 151.9198,227.5005 153.3948,227.5005 154.8698,227.5005 156.3447,227.5005 157.8196,227.5005 159.2946,227.5005 160.7695,227.5005 162.2445,227.5005 163.7194,227.5005 165.1944,227.5005 166.6693,227.5005 168.1443,227.5005 169.6192,227.5005 171.0942,227.5005 172.5691,227.5005 174.0441,227.5005 175.519,227.5005 176.994,227.5005 178.4689,227.5005 179.9439,227.5005 181.4188,227.5005 182.8938,227.5005 184.3687,227.5005 185.8437,227.5005 187.3186,227.5005 188.7936,227.5005 190.2686,227.5005 191.7435,227.5005 193.2184,227.5005 194.6934,227.5005 196.1684,227.5005 197.6433,227.5005 199.1183,227.5005 200.5932,227.5005 202.0681,227.5005 203.5431,227.5005 205.0181,227.5005 206.493,227.5005 207.968,227.5005 209.4429,227.5005 210.9178,227.5005 212.3928,227.5005 213.8678,227.5005 215.3427,227.5005 216.8176,227.5005 218.2926,227.5005 219.7675,227.5005 221.2425,1.499985 222.7175,1.499985 224.1924,1.499985 225.6673,1.499985 227.1423,1.499985 228.6172,1.499985 230.0922,1.499985 231.5672,1.499985 233.0421,1.499985 234.517,1.499985 235.992,1.499985 237.4669,1.499985 238.9419,1.499985 240.4168,1.499985 241.8918,1.499985 243.3667,1.499985 244.8417,1.499985 246.3167,1.499985 247.7916,1.499985 249.2665,1.499985 250.7415,1.499985 252.2164,1.499985 253.6914,1.499985 255.1664,1.499985 256.6413,1.499985 258.1162,1.499985 259.5912,1.499985 261.0661,1.499985 262.5411,1.499985 264.0161,1.499985 265.491,1.499985 266.9659,1.499985 268.4409,1.499985 269.9158,1.499985 271.3908,1.499985 272.8658,1.499985 274.3407,1.499985 275.8156,1.499985 277.2906,1.499985 278.7655,1.499985 280.2405,1.499985 281.7155,1.499985 283.1904,1.499985 284.6653,1.499985 286.1403,1.499985 287.6152,1.499985 289.0902,1.499985 290.5652,1.499985 292.0401,1.499985 293.515,1.499985 294.99,1.499985 296.4649,1.499985 297.9399,1.499985 299.4148,1.499985 300.8898,1.499985 302.3647,1.499985 303.8397,1.499985 305.3146,1.499985 306.7896,1.499985 308.2645,1.499985 309.7395,1.499985 311.2144,1.499985 312.6894,1.499985 314.1643,1.499985 315.6393,1.499985 317.1142,1.499985 318.5892,1.499985 320.0641,1.499985 321.5391,1.499985 323.014,1.499985 324.489,1.499985 325.9639,1.499985 327.4389,1.499985 328.9138,1.499985 330.3888,1.499985 331.8637,1.499985 333.3387,1.499985 334.8136,1.499985 336.2886,1.499985 337.7635,1.499985 339.2385,1.499985 340.7134,1.499985 342.1884,1.499985 343.6633,1.499985 345.1383,1.499985 346.6132,1.499985 348.0882,1.499985 349.5631,1.499985 351.0381,1.499985 352.513,1.499985 353.988,1.499985 355.4629,1.499985 356.9379,1.499985 358.4128,1.499985 359.8878,1.499985 361.3627,1.499985 362.8377,1.499985 364.3126,1.499985 365.7876,1.499985 367.2625,1.499985 368.7375,227.5005 370.2124,227.5005 371.6874,227.5005 373.1623,227.5005 374.6373,227.5005 376.1122,227.5005 377.5872,227.5005 379.0622,227.5005 380.5371,227.5005 382.0121,227.5005 383.487,227.5005 384.9619,227.5005 386.4369,227.5005 387.9119,227.5005 389.3868,227.5005 390.8618,227.5005 392.3367,227.5005 393.8116,227.5005 395.2866,227.5005 396.7616,227.5005 398.2365,227.5005 399.7115,227.5005 401.1864,227.5005 402.6613,227.5005 404.1363,227.5005 405.6112,227.5005 407.0862,227.5005 408.5612,227.5005 410.0361,227.5005 411.511,227.5005 412.986,227.5005 414.4609,227.5005 415.9359,227.5005 417.4109,227.5005 418.8858,227.5005 420.3607,227.5005 421.8357,227.5005 423.3106,227.5005 424.7856,227.5005 426.2606,227.5005 427.7355,227.5005 429.2104,227.5005 430.6854,227.5005 432.1603,227.5005 433.6353,227.5005 435.1103,227.5005 436.5852,227.5005 438.0602,227.5005 439.5351,227.5005 441.01,227.5005 442.485,227.5005 443.96,227.5005 445.4349,227.5005 446.9099,227.5005 448.3848,227.5005 449.8597,227.5005 451.3347,227.5005 452.8096,227.5005 454.2846,227.5005 455.7596,227.5005 457.2345,227.5005 458.7094,227.5005 460.1844,227.5005 461.6593,227.5005 463.1343,227.5005 464.6093,227.5005 466.0842,227.5005 467.5591,227.5005 469.0341,227.5005 470.509,227.5005 471.984,227.5005 473.459,227.5005 474.9339,227.5005 476.4088,227.5005 477.8838,227.5005 479.3587,227.5005 480.8337,227.5005 482.3087,227.5005 483.7836,227.5005 485.2585,227.5005 486.7335,227.5005 488.2084,227.5005 489.6834,227.5005 491.1584,227.5005 492.6333,227.5005 494.1082,227.5005 495.5832,227.5005 497.0581,227.5005 498.5331,227.5005 500.008,227.5005 501.483,227.5005 502.9579,227.5005 504.4329,227.5005 505.9078,227.5005 507.3828,227.5005 508.8577,227.5005 510.3327,227.5005 511.8076,227.5005 513.2826,227.5005 514.7576,227.5005 516.2325,1.499985 517.7075,1.499985 519.1824,1.499985 520.6573,1.499985 522.1323,1.499985 523.6072,1.499985 525.0822,1.499985 526.5571,1.499985 528.0321,1.499985 529.507,1.499985 530.982,1.499985 532.4569,1.499985 533.9319,1.499985 535.4069,1.499985 536.8818,1.499985 538.3568,1.499985 539.8317,1.499985 541.3066,1.499985 542.7816,1.499985 544.2565,1.499985 545.7315,1.499985 547.2064,1.499985 548.6814,1.499985 550.1563,1.499985 551.6313,1.499985 553.1063,1.499985 554.5812,1.499985 556.0562,1.499985 557.5311,1.499985 559.006,1.499985 560.481,1.499985 561.9559,1.499985 563.4309,1.499985 564.9058,1.499985 566.3808,1.499985 567.8557,1.499985 569.3307,1.499985 570.8056,1.499985 572.2806,1.499985 573.7556,1.499985 575.2305,1.499985 576.7054,1.499985 578.1804,1.499985 579.6553,1.499985 581.1303,1.499985 582.6052,1.499985 584.0802,1.499985 585.5551,1.499985 587.0301,1.499985 588.505,1.499985 589.98,227.5005 591.455,227.5005 592.9299,227.5005 594.4048,227.5005 595.8798,227.5005 597.3547,227.5005 598.8297,227.5005 600.3046,227.5005 601.7796,227.5005 603.2545,227.5005 604.7295,227.5005 606.2044,227.5005 607.6794,227.5005 609.1544,227.5005 610.6293,227.5005 612.1042,227.5005 613.5792,227.5005 615.0541,227.5005 616.5291,227.5005 618.004,227.5005 619.479,227.5005 620.9539,227.5005 622.4289,227.5005 623.9038,227.5005 625.3788,227.5005 626.8537,227.5005 628.3287,227.5005 629.8036,227.5005 631.2786,227.5005 632.7535,227.5005 634.2285,227.5005 635.7034,227.5005 637.1783,227.5005 638.6533,227.5005 640.1283,227.5005 641.6032,227.5005 643.0782,227.5005 644.5531,227.5005 646.0281,227.5005 647.5031,227.5005 648.978,227.5005 650.4529,227.5005 651.9279,227.5005 653.4028,227.5005 654.8777,227.5005 656.3527,227.5005 657.8277,227.5005 659.3026,227.5005 660.7776,227.5005 662.2525,227.5005 663.7275,227.5005 665.2024,227.5005 666.6774,227.5005 668.1523,227.5005 669.6273,227.5005 671.1022,227.5005 672.5771,227.5005 674.0521,227.5005 675.5271,227.5005 677.002,227.5005 678.477,227.5005 679.9519,227.5005 681.4269,227.5005 682.9018,227.5005 684.3768,227.5005 685.8517,227.5005 687.3267,227.5005 688.8016,227.5005 690.2766,227.5005 691.7515,227.5005 693.2264,227.5005 694.7014,227.5005 696.1764,227.5005 697.6513,227.5005 699.1263,227.5005 700.6012,227.5005 702.0762,227.5005 703.5511,227.5005 705.0261,227.5005 706.501,227.5005 707.976,227.5005 709.4509,227.5005 710.9258,227.5005 712.4008,227.5005 713.8758,227.5005 715.3507,227.5005 716.8257,227.5005 718.3006,227.5005 719.7756,227.5005 721.2505,227.5005 722.7255,227.5005 724.2004,227.5005 725.6754,227.5005 727.1503,227.5005 728.6252,227.5005 730.1002,227.5005 731.5751,227.5005 733.0501,227.5005 734.5251,227.5005 736,227.5005 736,227.5005 "></polygon>
</g>
<g id="Key">
<rect x="3" y="3" width="59" height="32" rx="8" ry="8" fill="#FFFFFF" fill-opacity="0.7490196" stroke="none"></rect>
<ellipse cx="11" cy="11" rx="7" ry="7" fill="#1472F0" fill-opacity="0.5019608" stroke="none"></ellipse>
<text x="21.5" y="16.2" fill="#1472F0" fill-opacity="1" font-family="sans-serif" font-size="14">am</text>
<ellipse cx="11" cy="27" rx="7" ry="7" fill="#9400D3" fill-opacity="0.5019608" stroke="none"></ellipse>
<text x="21.5" y="32.2" fill="#9400D3" fill-opacity="1" font-family="sans-serif" font-size="14">data</text>
</g>
<defs>
<linearGradient id="grad0" x1="0%" y1="-0.005945958%" x2="0%" y2="100%">
<stop offset="0%" stop-color="#1472F0" stop-opacity="0.1882353"></stop>
<stop offset="50%" stop-color="#1472F0" stop-opacity="0.02352941"></stop>
<stop offset="100%" stop-color="#1472F0" stop-opacity="0.1882353"></stop>
</linearGradient>
<linearGradient id="grad1" x1="0%" y1="0%" x2="0%" y2="200%">
<stop offset="0%" stop-color="#9400D3" stop-opacity="0.1882353"></stop>
<stop offset="50%" stop-color="#9400D3" stop-opacity="0.02352941"></stop>
<stop offset="100%" stop-color="#9400D3" stop-opacity="0.1882353"></stop>
</linearGradient>
</defs>
</svg>
