<?xml version="1.0"?>


<svg viewBox="0 0 736 455" preserveAspectRatio="xMinYMin meet" version="1.1" xmlns="http://www.w3.org/2000/svg" width="736" height="455">
<g id="Axis">
<line x1="0" y1="227.5" x2="736" y2="227.5" stroke="#D4D4D4" stroke-opacity="1" stroke-width="1" stroke-linecap="round" fill="none"></line>
<line x1="0" y1="0" x2="0" y2="455" stroke="#D4D4D4" stroke-opacity="1" stroke-width="1" stroke-linecap="round" fill="none"></line>
</g>
<g id="carrier">
<polyline stroke="#1472F0" stroke-opacity="0.6431373" stroke-linecap="round" stroke-linejoin="round" stroke-width="3" fill="none" points="0,227.5 1.47495,171.1856 2.9499,118.4237 4.42485,72.54284 5.8998,36.43737 7.37475,12.38498 8.8497,1.902994 10.32465,5.652676 11.7996,23.39746 13.27455,54.01795 14.7495,95.58245 16.22445,145.4689 17.6994,200.5302 19.17435,257.2929 20.6493,312.1762 22.12425,361.7177 23.5992,402.7921 25.07415,432.8083 26.5491,449.8728 28.02405,452.909 29.499,441.7254 30.97395,417.0276 32.4489,380.3734 33.92385,334.0754 35.3988,281.0541 36.87375,224.6544 38.3487,168.4342 39.82365,115.9401 41.2986,70.48369 42.77355,34.9326 44.2485,11.5295 45.72345,1.750788 47.1984,6.213327 48.67335,24.63562 50.1483,55.85549 51.62325,97.90347 53.0982,148.127 54.57315,203.3577 56.0481,260.1114 57.52305,314.8078 58.998,363.9965 60.47295,404.5743 61.9479,433.9816 63.42285,450.363 64.8978,452.6853 66.37275,440.8019 67.84769,415.4625 69.32265,378.2655 70.7976,331.5576 72.27254,278.2853 73.7475,221.8092 75.22245,165.6921 76.6974,113.4741 78.17235,68.44944 79.64729,33.45835 81.12225,10.70826 82.5972,1.634361 84.07214,6.809069 85.5471,25.90594 87.02205,57.72025 88.49699,100.245 89.97195,150.7976 91.44689,206.1889 92.92184,262.9246 94.3968,317.4256 95.87175,366.2537 97.3467,406.3285 98.82165,435.1221 100.2966,450.8179 101.7716,452.4259 103.2465,439.8445 104.7215,413.8675 106.1964,376.1336 107.6713,329.0233 109.1463,275.5084 110.6212,218.9649 112.0962,162.9599 113.5712,111.0263 115.0461,66.4404 116.521,32.01487 117.996,9.921397 119.4709,1.553752 120.9459,7.439795 122.4208,27.20822 123.8958,59.61193 125.3708,102.6068 126.8457,153.4804 128.3206,209.0236 129.7956,265.7323 131.2706,320.0291 132.7455,368.4888 134.2204,408.0544 135.6954,436.2297 137.1703,451.2374 138.6453,452.1308 140.1202,438.8535 141.5952,412.2431 143.0701,373.9782 144.5451,326.4729 146.0201,272.7239 147.495,216.122 148.9699,160.2379 150.4449,108.5969 151.9198,64.4569 153.3948,30.60238 154.8698,9.169031 156.3447,1.508962 157.8196,8.105411 159.2946,28.54225 160.7695,61.53022 162.2445,104.9883 163.7194,156.175 165.1944,211.8611 166.6693,268.5339 168.1443,322.618 169.6192,370.7017 171.0942,409.7516 172.5691,437.3042 174.0441,451.6214 175.519,451.8001 176.994,437.8289 178.4689,410.5893 179.9439,371.7996 181.4188,323.9068 182.8938,269.9323 184.3687,213.2809 185.8437,157.5265 187.3186,106.1864 188.7936,62.49926 190.2686,29.22111 191.7435,8.451271 193.2184,1.500004 194.6934,8.80582 196.1684,29.90783 197.6433,63.47483 199.1183,107.3893 200.5932,158.8808 202.0681,214.7012 203.5431,271.3289 205.0181,325.1918 206.493,372.8918 207.968,411.4198 209.4429,438.3454 210.9178,451.9699 212.3928,451.4339 213.8678,436.7711 215.3427,408.9065 216.8176,369.5981 218.2926,321.3254 219.7675,267.1339 221.2425,210.442 222.7175,154.8262 224.1924,103.7951 225.6673,60.56776 227.1423,27.87127 228.6172,7.768252 230.0922,1.526878 231.5672,9.54089 233.0421,31.30473 234.517,65.44544 235.992,109.8093 237.4669,161.5975 238.9419,217.5433 240.4168,274.1171 241.8918,327.7501 243.3667,375.0589 244.8417,413.059 246.3167,439.3532 247.7916,452.2828 249.2665,451.0321 250.7415,435.68 252.2164,407.195 253.6914,367.374 255.1664,318.7292 256.6413,264.3292 258.1162,207.6059 259.5912,152.1375 261.0661,101.4234 262.5411,58.66275 264.0161,26.5531 265.491,7.120068 266.9659,1.589584 268.4409,10.31053 269.9158,32.73275 271.3908,67.44175 272.8658,112.2479 274.3407,164.3247 275.8156,220.3869 277.2906,276.8978 278.7655,330.2925 280.2405,377.2025 281.7155,414.6687 283.1904,440.3274 284.6653,452.5601 286.1403,450.5949 287.6152,434.5559 289.0902,405.455 290.5652,365.1278 292.0401,316.1184 293.515,261.5187 294.99,204.7728 296.4649,149.4607 297.9399,99.0717 299.4148,56.78448 300.8898,25.26677 302.3647,6.506814 303.8397,1.688096 305.3146,11.11459 306.7896,34.19164 308.2645,69.46343 309.7395,114.7049 311.2144,167.0619 312.6894,223.2317 314.1643,279.6707 315.6393,332.8186 317.1142,379.3225 318.5892,416.2487 320.0641,441.2679 321.5391,452.8016 323.014,450.1223 324.489,433.399 325.9639,403.6867 327.4389,362.8597 328.9138,313.4937 330.3888,258.7028 331.8637,201.9434 333.3387,146.7963 334.8136,96.74036 336.2886,54.9333 337.7635,24.01251 339.2385,5.92861 340.7134,1.822412 342.1884,11.95297 343.6633,35.68118 345.1383,71.51017 346.6132,117.1797 348.0882,169.8087 349.5631,226.0772 351.0381,282.4354 352.513,335.328 353.988,381.4184 355.4629,417.7989 356.9379,442.1745 358.4128,453.0075 359.8878,449.6145 361.3627,432.2095 362.8377,401.8905 364.3126,360.5703 365.7876,310.8553 367.2625,255.8819 368.7375,199.1181 370.2124,144.1447 371.6874,94.42976 373.1623,53.10947 374.6373,22.79051 376.1122,5.385524 377.5872,1.99252 379.0622,12.82551 380.5371,37.20113 382.0121,73.58164 383.487,119.672 384.9619,172.5646 386.4369,228.9228 387.9119,285.1913 389.3868,337.8203 390.8618,383.4898 392.3367,419.3188 393.8116,443.047 395.2866,453.1776 396.7616,449.0714 398.2365,430.9875 399.7115,400.0667 401.1864,358.2596 402.6613,308.2037 404.1363,253.0566 405.6112,196.2972 407.0862,141.5063 408.5612,92.14025 410.0361,51.31329 411.511,21.60097 412.986,4.877665 414.4609,2.198366 415.9359,13.7321 417.4109,38.75125 418.8858,75.67751 420.3607,122.1814 421.8357,175.3293 423.3106,231.7683 424.7856,287.9381 426.2606,340.2951 427.7355,385.5366 429.2104,420.8083 430.6854,443.8854 432.1603,453.3119 433.6353,448.4932 435.1103,429.7332 436.5852,398.2155 438.0602,355.9283 439.5351,305.5392 441.01,250.2272 442.485,193.4813 443.96,138.8815 445.4349,89.87222 446.9099,49.54504 448.3848,20.44406 449.8597,4.405099 451.3347,2.439937 452.8096,14.67257 454.2846,40.3313 455.7596,77.79747 457.2345,124.7075 458.7094,178.1022 460.1844,234.6131 461.6593,290.6753 463.1343,342.7521 464.6093,387.5583 466.0842,422.2672 467.5591,444.6895 469.0341,453.4104 470.509,447.8799 471.984,428.4469 473.459,396.3372 474.9339,353.5766 476.4088,302.8625 477.8838,247.3941 479.3587,190.6708 480.8337,136.2708 482.3087,87.62598 483.7836,47.80501 485.2585,19.32 486.7335,3.967893 488.2084,2.717191 489.6834,15.64679 491.1584,41.94102 492.6333,79.94114 494.1082,127.2499 495.5832,180.8829 497.0581,237.4567 498.5331,293.4024 500.008,345.1907 501.483,389.5546 502.9579,423.6953 504.4329,445.4591 505.9078,453.4731 507.3828,447.2318 508.8577,427.1287 510.3327,394.4323 511.8076,351.2049 513.2826,300.1737 514.7576,244.558 516.2325,187.8661 517.7075,133.6746 519.1824,85.40193 520.6573,46.09346 522.1323,18.22892 523.6072,3.566143 525.0822,3.030089 526.5571,16.65459 528.0321,43.58016 529.507,82.10822 530.982,129.8082 532.4569,183.6711 533.9319,240.2988 535.4069,296.1192 536.8818,347.6107 538.3568,391.5252 539.8317,425.0922 541.3066,446.1942 542.7816,453.5 544.2565,446.5487 545.7315,425.7789 547.2064,392.5007 548.6814,348.8136 550.1563,297.4735 551.6313,241.7191 553.1063,185.0678 554.5812,131.0932 556.0562,83.20041 557.5311,44.41069 559.006,17.17104 560.481,3.199887 561.9559,3.378563 563.4309,17.69583 564.9058,45.24846 566.3808,84.29834 567.8557,132.382 569.3307,186.4661 570.8056,243.1389 572.2806,298.825 573.7556,350.0117 575.2305,393.4698 576.7054,426.4578 578.1804,446.8946 579.6553,453.491 581.1303,445.831 582.6052,424.3976 584.0802,390.5431 585.5551,346.4031 587.0301,294.7621 588.505,238.878 589.98,182.2761 591.455,128.5271 592.9299,81.02177 594.4048,42.75693 595.8798,16.1465 597.3547,2.869181 598.8297,3.762586 600.3046,18.77032 601.7796,46.94566 603.2545,86.51116 604.7295,134.9709 606.2044,189.2677 607.6794,245.9764 609.1544,301.5196 610.6293,352.3932 612.1042,395.3881 613.5792,427.7918 615.0541,447.5602 616.5291,453.4463 618.004,445.0786 619.479,422.9851 620.9539,388.5596 622.4289,343.9737 623.9038,292.0401 625.3788,236.0351 626.8537,179.4916 628.3287,125.9767 629.8036,78.86636 631.2786,41.13247 632.7535,15.15547 634.2285,2.574105 635.7034,4.182064 637.1783,19.87791 638.6533,48.67149 640.1283,88.74635 641.6032,137.5744 643.0782,192.0754 644.5531,248.8111 646.0281,304.2024 647.5031,354.755 648.978,397.2798 650.4529,429.0941 651.9279,448.1909 653.4028,453.3656 654.8777,444.2917 656.3527,421.5417 657.8277,386.5506 659.3026,341.5258 660.7776,289.3079 662.2525,233.1908 663.7275,176.7147 665.2024,123.4424 666.6774,76.7345 668.1523,39.53755 669.6273,14.19811 671.1022,2.314686 672.5771,4.636957 674.0521,21.01842 675.5271,50.42566 677.002,91.00352 678.477,140.1922 679.9519,194.8886 681.4269,251.6423 682.9018,306.873 684.3768,357.0965 685.8517,399.1445 687.3267,430.3644 688.8016,448.7867 690.2766,453.2492 691.7515,443.4705 693.2264,420.0674 694.7014,384.5163 696.1764,339.0599 697.6513,286.5659 699.1263,230.3456 700.6012,173.9459 702.0762,120.9246 703.5511,74.62656 705.0261,37.97244 706.501,13.27456 707.976,2.090978 709.4509,5.127183 710.9258,22.19167 712.4008,52.2079 713.8758,93.28235 715.3507,142.8238 716.8257,197.7071 718.3006,254.4698 719.7756,309.5311 721.2505,359.4175 722.7255,400.9821 724.2004,431.6025 725.6754,449.3473 727.1503,453.097 728.6252,442.615 730.1002,418.5626 731.5751,382.4572 733.0501,336.5763 734.5251,283.8144 736,227.5 "></polyline>
<polygon fill="url(#grad0)" stroke="none" points="0,227.5 0,227.5 0,227.5 1.47495,171.1856 2.9499,118.4237 4.42485,72.54284 5.8998,36.43737 7.37475,12.38498 8.8497,1.902994 10.32465,5.652676 11.7996,23.39746 13.27455,54.01795 14.7495,95.58245 16.22445,145.4689 17.6994,200.5302 19.17435,257.2929 20.6493,312.1762 22.12425,361.7177 23.5992,402.7921 25.07415,432.8083 26.5491,449.8728 28.02405,452.909 29.499,441.7254 30.97395,417.0276 32.4489,380.3734 33.92385,334.0754 35.3988,281.0541 36.87375,224.6544 38.3487,168.4342 39.82365,115.9401 41.2986,70.48369 42.77355,34.9326 44.2485,11.5295 45.72345,1.750788 47.1984,6.213327 48.67335,24.63562 50.1483,55.85549 51.62325,97.90347 53.0982,148.127 54.57315,203.3577 56.0481,260.1114 57.52305,314.8078 58.998,363.9965 60.47295,404.5743 61.9479,433.9816 63.42285,450.363 64.8978,452.6853 66.37275,440.8019 67.84769,415.4625 69.32265,378.2655 70.7976,331.5576 72.27254,278.2853 73.7475,221.8092 75.22245,165.6921 76.6974,113.4741 78.17235,68.44944 79.64729,33.45835 81.12225,10.70826 82.5972,1.634361 84.07214,6.809069 85.5471,25.90594 87.02205,57.72025 88.49699,100.245 89.97195,150.7976 91.44689,206.1889 92.92184,262.9246 94.3968,317.4256 95.87175,366.2537 97.3467,406.3285 98.82165,435.1221 100.2966,450.8179 101.7716,452.4259 103.2465,439.8445 104.7215,413.8675 106.1964,376.1336 107.6713,329.0233 109.1463,275.5084 110.6212,218.9649 112.0962,162.9599 113.5712,111.0263 115.0461,66.4404 116.521,32.01487 117.996,9.921397 119.4709,1.553752 120.9459,7.439795 122.4208,27.20822 123.8958,59.61193 125.3708,102.6068 126.8457,153.4804 128.3206,209.0236 129.7956,265.7323 131.2706,320.0291 132.7455,368.4888 134.2204,408.0544 135.6954,436.2297 137.1703,451.2374 138.6453,452.1308 140.1202,438.8535 141.5952,412.2431 143.0701,373.9782 144.5451,326.4729 146.0201,272.7239 147.495,216.122 148.9699,160.2379 150.4449,108.5969 151.9198,64.4569 153.3948,30.60238 154.8698,9.169031 156.3447,1.508962 157.8196,8.105411 159.2946,28.54225 160.7695,61.53022 162.2445,104.9883 163.7194,156.175 165.1944,211.8611 166.6693,268.5339 168.1443,322.618 169.6192,370.7017 171.0942,409.7516 172.5691,437.3042 174.0441,451.6214 175.519,451.8001 176.994,437.8289 178.4689,410.5893 179.9439,371.7996 181.4188,323.9068 182.8938,269.9323 184.3687,213.2809 185.8437,157.5265 187.3186,106.1864 188.7936,62.49926 190.2686,29.22111 191.7435,8.451271 193.2184,1.500004 194.6934,8.80582 196.1684,29.90783 197.6433,63.47483 199.1183,107.3893 200.5932,158.8808 202.0681,214.7012 203.5431,271.3289 205.0181,325.1918 206.493,372.8918 207.968,411.4198 209.4429,438.3454 210.9178,451.9699 212.3928,451.4339 213.8678,436.7711 215.3427,408.9065 216.8176,369.5981 218.2926,321.3254 219.7675,267.1339 221.2425,210.442 222.7175,154.8262 224.1924,103.7951 225.6673,60.56776 227.1423,27.87127 228.6172,7.768252 230.0922,1.526878 231.5672,9.54089 233.0421,31.30473 234.517,65.44544 235.992,109.8093 237.4669,161.5975 238.9419,217.5433 240.4168,274.1171 241.8918,327.7501 243.3667,375.0589 244.8417,413.059 246.3167,439.3532 247.7916,452.2828 249.2665,451.0321 250.7415,435.68 252.2164,407.195 253.6914,367.374 255.1664,318.7292 256.6413,264.3292 258.1162,207.6059 259.5912,152.1375 261.0661,101.4234 262.5411,58.66275 264.0161,26.5531 265.491,7.120068 266.9659,1.589584 268.4409,10.31053 269.9158,32.73275 271.3908,67.44175 272.8658,112.2479 274.3407,164.3247 275.8156,220.3869 277.2906,276.8978 278.7655,330.2925 280.2405,377.2025 281.7155,414.6687 283.1904,440.3274 284.6653,452.5601 286.1403,450.5949 287.6152,434.5559 289.0902,405.455 290.5652,365.1278 292.0401,316.1184 293.515,261.5187 294.99,204.7728 296.4649,149.4607 297.9399,99.0717 299.4148,56.78448 300.8898,25.26677 302.3647,6.506814 303.8397,1.688096 305.3146,11.11459 306.7896,34.19164 308.2645,69.46343 309.7395,114.7049 311.2144,167.0619 312.6894,223.2317 314.1643,279.6707 315.6393,332.8186 317.1142,379.3225 318.5892,416.2487 320.0641,441.2679 321.5391,452.8016 323.014,450.1223 324.489,433.399 325.9639,403.6867 327.4389,362.8597 328.9138,313.4937 330.3888,258.7028 331.8637,201.9434 333.3387,146.7963 334.8136,96.74036 336.2886,54.9333 337.7635,24.01251 339.2385,5.92861 340.7134,1.822412 342.1884,11.95297 343.6633,35.68118 345.1383,71.51017 346.6132,117.1797 348.0882,169.8087 349.5631,226.0772 351.0381,282.4354 352.513,335.328 353.988,381.4184 355.4629,417.7989 356.9379,442.1745 358.4128,453.0075 359.8878,449.6145 361.3627,432.2095 362.8377,401.8905 364.3126,360.5703 365.7876,310.8553 367.2625,255.8819 368.7375,199.1181 370.2124,144.1447 371.6874,94.42976 373.1623,53.10947 374.6373,22.79051 376.1122,5.385524 377.5872,1.99252 379.0622,12.82551 380.5371,37.20113 382.0121,73.58164 383.487,119.672 384.9619,172.5646 386.4369,228.9228 387.9119,285.1913 389.3868,337.8203 390.8618,383.4898 392.3367,419.3188 393.8116,443.047 395.2866,453.1776 396.7616,449.0714 398.2365,430.9875 399.7115,400.0667 401.1864,358.2596 402.6613,308.2037 404.1363,253.0566 405.6112,196.2972 407.0862,141.5063 408.5612,92.14025 410.0361,51.31329 411.511,21.60097 412.986,4.877665 414.4609,2.198366 415.9359,13.7321 417.4109,38.75125 418.8858,75.67751 420.3607,122.1814 421.8357,175.3293 423.3106,231.7683 424.7856,287.9381 426.2606,340.2951 427.7355,385.5366 429.2104,420.8083 430.6854,443.8854 432.1603,453.3119 433.6353,448.4932 435.1103,429.7332 436.5852,398.2155 438.0602,355.9283 439.5351,305.5392 441.01,250.2272 442.485,193.4813 443.96,138.8815 445.4349,89.87222 446.9099,49.54504 448.3848,20.44406 449.8597,4.405099 451.3347,2.439937 452.8096,14.67257 454.2846,40.3313 455.7596,77.79747 457.2345,124.7075 458.7094,178.1022 460.1844,234.6131 461.6593,290.6753 463.1343,342.7521 464.6093,387.5583 466.0842,422.2672 467.5591,444.6895 469.0341,453.4104 470.509,447.8799 471.984,428.4469 473.459,396.3372 474.9339,353.5766 476.4088,302.8625 477.8838,247.3941 479.3587,190.6708 480.8337,136.2708 482.3087,87.62598 483.7836,47.80501 485.2585,19.32 486.7335,3.967893 488.2084,2.717191 489.6834,15.64679 491.1584,41.94102 492.6333,79.94114 494.1082,127.2499 495.5832,180.8829 497.0581,237.4567 498.5331,293.4024 500.008,345.1907 501.483,389.5546 502.9579,423.6953 504.4329,445.4591 505.9078,453.4731 507.3828,447.2318 508.8577,427.1287 510.3327,394.4323 511.8076,351.2049 513.2826,300.1737 514.7576,244.558 516.2325,187.8661 517.7075,133.6746 519.1824,85.40193 520.6573,46.09346 522.1323,18.22892 523.6072,3.566143 525.0822,3.030089 526.5571,16.65459 528.0321,43.58016 529.507,82.10822 530.982,129.8082 532.4569,183.6711 533.9319,240.2988 535.4069,296.1192 536.8818,347.6107 538.3568,391.5252 539.8317,425.0922 541.3066,446.1942 542.7816,453.5 544.2565,446.5487 545.7315,425.7789 547.2064,392.5007 548.6814,348.8136 550.1563,297.4735 551.6313,241.7191 553.1063,185.0678 554.5812,131.0932 556.0562,83.20041 557.5311,44.41069 559.006,17.17104 560.481,3.199887 561.9559,3.378563 563.4309,17.69583 564.9058,45.24846 566.3808,84.29834 567.8557,132.382 569.3307,186.4661 570.8056,243.1389 572.2806,298.825 573.7556,350.0117 575.2305,393.4698 576.7054,426.4578 578.1804,446.8946 579.6553,453.491 581.1303,445.831 582.6052,424.3976 584.0802,390.5431 585.5551,346.4031 587.0301,294.7621 588.505,238.878 589.98,182.2761 591.455,128.5271 592.9299,81.02177 594.4048,42.75693 595.8798,16.1465 597.3547,2.869181 598.8297,3.762586 600.3046,18.77032 601.7796,46.94566 603.2545,86.51116 604.7295,134.9709 606.2044,189.2677 607.6794,245.9764 609.1544,301.5196 610.6293,352.3932 612.1042,395.3881 613.5792,427.7918 615.0541,447.5602 616.5291,453.4463 618.004,445.0786 619.479,422.9851 620.9539,388.5596 622.4289,343.9737 623.9038,292.0401 625.3788,236.0351 626.8537,179.4916 628.3287,125.9767 629.8036,78.86636 631.2786,41.13247 632.7535,15.15547 634.2285,2.574105 635.7034,4.182064 637.1783,19.87791 638.6533,48.67149 640.1283,88.74635 641.6032,137.5744 643.0782,192.0754 644.5531,248.8111 646.0281,304.2024 647.5031,354.755 648.978,397.2798 650.4529,429.0941 651.9279,448.1909 653.4028,453.3656 654.8777,444.2917 656.3527,421.5417 657.8277,386.5506 659.3026,341.5258 660.7776,289.3079 662.2525,233.1908 663.7275,176.7147 665.2024,123.4424 666.6774,76.7345 668.1523,39.53755 669.6273,14.19811 671.1022,2.314686 672.5771,4.636957 674.0521,21.01842 675.5271,50.42566 677.002,91.00352 678.477,140.1922 679.9519,194.8886 681.4269,251.6423 682.9018,306.873 684.3768,357.0965 685.8517,399.1445 687.3267,430.3644 688.8016,448.7867 690.2766,453.2492 691.7515,443.4705 693.2264,420.0674 694.7014,384.5163 696.1764,339.0599 697.6513,286.5659 699.1263,230.3456 700.6012,173.9459 702.0762,120.9246 703.5511,74.62656 705.0261,37.97244 706.501,13.27456 707.976,2.090978 709.4509,5.127183 710.9258,22.19167 712.4008,52.2079 713.8758,93.28235 715.3507,142.8238 716.8257,197.7071 718.3006,254.4698 719.7756,309.5311 721.2505,359.4175 722.7255,400.9821 724.2004,431.6025 725.6754,449.3473 727.1503,453.097 728.6252,442.615 730.1002,418.5626 731.5751,382.4572 733.0501,336.5763 734.5251,283.8144 736,227.5 736,227.5 "></polygon>
</g>
<g id="Key">
<rect x="3" y="3" width="76" height="16" rx="8" ry="8" fill="#F2F2F2" fill-opacity="0.7490196" stroke="none"></rect>
<ellipse cx="11" cy="11" rx="7" ry="7" fill="#1472F0" fill-opacity="0.5019608" stroke="none"></ellipse>
<text x="21.5" y="16.2" fill="#1472F0" fill-opacity="1" font-family="sans-serif" font-size="14">carrier</text>
</g>
<defs>
<linearGradient id="grad0" x1="0%" y1="0%" x2="0%" y2="100%">
<stop offset="0%" stop-color="#1472F0" stop-opacity="0.1882353"></stop>
<stop offset="50%" stop-color="#1472F0" stop-opacity="0.02352941"></stop>
<stop offset="100%" stop-color="#1472F0" stop-opacity="0.1882353"></stop>
</linearGradient>
</defs>
</svg>
