<?xml version="1.0"?>


<svg viewBox="0 0 736 455" preserveAspectRatio="xMinYMin meet" version="1.1" xmlns="http://www.w3.org/2000/svg" width="736" height="455">
<g id="Axis">
<line x1="0" y1="227.5005" x2="736" y2="227.5005" stroke="#D4D4D4" stroke-opacity="1" stroke-width="1" stroke-linecap="round" fill="none"></line>
<line x1="0" y1="0" x2="0" y2="455" stroke="#D4D4D4" stroke-opacity="1" stroke-width="1" stroke-linecap="round" fill="none"></line>
</g>
<g id="bpsk">
<polyline stroke="#1472F0" stroke-opacity="0.6431373" stroke-linecap="round" stroke-linejoin="round" stroke-width="3" fill="none" points="0,227.5005 1.47495,171.1862 2.9499,118.4245 4.42485,72.54376 5.8998,36.43839 7.37475,12.38605 8.8497,1.904092 10.32465,5.653764 11.7996,23.39851 13.27455,54.01892 14.7495,95.58332 16.22445,145.4697 17.6994,200.5308 19.17435,257.2934 20.6493,312.1765 22.12425,361.7179 23.5992,402.7922 25.07415,432.8084 26.5491,449.8728 28.02405,452.909 29.499,441.7255 30.97395,417.0276 32.4489,380.3736 33.92385,334.0757 35.3988,281.0545 36.87375,224.6549 38.3487,168.4348 39.82365,115.9409 41.2986,70.48462 42.77355,34.93361 44.2485,11.53058 45.72345,1.751886 47.1984,6.214414 48.67335,24.63667 50.1483,55.85646 51.62325,97.90434 53.0982,148.1277 54.57315,203.3583 56.0481,260.1118 57.52305,314.8081 58.998,363.9967 60.47295,404.5745 61.9479,433.9816 63.42285,450.363 64.8978,452.6853 66.37275,440.8019 67.84769,415.4626 69.32265,378.2657 70.7976,331.5579 72.27254,278.2857 73.7475,221.8098 75.22245,165.6928 76.6974,113.475 78.17235,68.45037 79.64729,33.45937 81.12225,10.70934 82.5972,1.635459 84.07214,6.810155 85.5471,25.90698 87.02205,57.72121 88.49699,100.2459 89.97195,150.7983 91.44689,206.1895 92.92184,262.9251 94.3968,317.4259 95.87175,366.2539 97.3467,406.3286 98.82165,435.1221 100.2966,450.8179 101.7716,452.4259 103.2465,439.8446 104.7215,413.8676 106.1964,376.1338 107.6713,329.0236 109.1463,275.5088 110.6212,218.9655 112.0962,162.9606 113.5712,111.0271 115.0461,66.44134 116.521,32.01589 117.996,9.922476 119.4709,1.554851 120.9459,7.440879 122.4208,27.20926 123.8958,59.61289 125.3708,102.6076 126.8457,153.4812 128.3206,209.0242 129.7956,265.7327 131.2706,320.0294 132.7455,368.489 134.2204,408.0544 135.6954,436.2297 137.1703,451.2374 138.6453,452.1308 140.1202,438.8535 141.5952,412.2432 143.0701,373.9784 144.5451,326.4732 146.0201,272.7243 147.495,238.8785 148.9699,294.7625 150.4449,346.4034 151.9198,390.5432 153.3948,424.3977 154.8698,445.831 156.3447,453.491 157.8196,446.8946 159.2946,426.4578 160.7695,393.4699 162.2445,350.0119 163.7194,298.8254 165.1944,243.1394 166.6693,186.4668 168.1443,132.3828 169.6192,84.29924 171.0942,45.24945 172.5691,17.69689 174.0441,3.379657 175.519,3.200982 176.994,17.1721 178.4689,44.41168 179.9439,83.20131 181.4188,131.094 182.8938,185.0684 184.3687,241.7197 185.8437,297.4739 187.3186,348.8139 188.7936,392.5009 190.2686,425.779 191.7435,446.5487 193.2184,453.5 194.6934,446.1942 196.1684,425.0922 197.6433,391.5253 199.1183,347.611 200.5932,296.1196 202.0681,240.2993 203.5431,183.6717 205.0181,129.809 206.493,82.10912 207.968,43.58116 209.4429,16.65565 210.9178,3.031184 212.3928,3.567236 213.8678,18.22998 215.3427,46.09445 216.8176,85.40282 218.2926,133.6754 219.7675,187.8668 221.2425,210.4426 222.7175,154.827 224.1924,103.7959 225.6673,60.56871 227.1423,27.87231 228.6172,7.769335 230.0922,1.527977 231.5672,9.541969 233.0421,31.30576 234.517,65.44638 235.992,109.8101 237.4669,161.5983 238.9419,217.5438 240.4168,274.1175 241.8918,327.7504 243.3667,375.0591 244.8417,413.0591 246.3167,439.3532 247.7916,452.2828 249.2665,451.0321 250.7415,435.6801 252.2164,407.1951 253.6914,367.3742 255.1664,318.7295 256.6413,264.3297 258.1162,207.6064 259.5912,152.1382 261.0661,101.4242 262.5411,58.6637 264.0161,26.55414 265.491,7.121153 266.9659,1.590683 268.4409,10.3116 269.9158,32.73377 271.3908,67.44269 272.8658,112.2488 274.3407,164.3254 275.8156,220.3875 277.2906,276.8983 278.7655,330.2928 280.2405,377.2027 281.7155,414.6688 283.1904,440.3275 284.6653,452.5601 286.1403,450.5949 287.6152,434.556 289.0902,405.4551 290.5652,365.128 292.0401,316.1188 293.515,261.5191 294.99,204.7734 296.4649,149.4615 297.9399,99.07256 299.4148,56.78545 300.8898,25.26781 302.3647,6.5079 303.8397,1.689194 305.3146,11.11567 306.7896,34.19266 308.2645,69.46436 309.7395,114.7057 311.2144,167.0626 312.6894,223.2323 314.1643,279.6711 315.6393,332.8189 317.1142,379.3227 318.5892,416.2488 320.0641,441.2679 321.5391,452.8016 323.014,450.1223 324.489,433.3991 325.9639,403.6868 327.4389,362.86 328.9138,313.494 330.3888,258.7032 331.8637,201.944 333.3387,146.7971 334.8136,96.74123 336.2886,54.93427 337.7635,24.01355 339.2385,5.929698 340.7134,1.82351 342.1884,11.95404 343.6633,35.68219 345.1383,71.5111 346.6132,117.1805 348.0882,169.8094 349.5631,226.0777 351.0381,282.4358 352.513,335.3283 353.988,381.4185 355.4629,417.799 356.9379,442.1745 358.4128,453.0075 359.8878,449.6145 361.3627,432.2095 362.8377,401.8907 364.3126,360.5705 365.7876,310.8556 367.2625,255.8824 368.7375,255.8824 370.2124,310.8556 371.6874,360.5705 373.1623,401.8907 374.6373,432.2095 376.1122,449.6145 377.5872,453.0075 379.0622,442.1745 380.5371,417.799 382.0121,381.4185 383.487,335.3283 384.9619,282.4358 386.4369,226.0777 387.9119,169.8094 389.3868,117.1805 390.8618,71.5111 392.3367,35.68219 393.8116,11.95404 395.2866,1.82351 396.7616,5.929698 398.2365,24.01355 399.7115,54.93427 401.1864,96.74123 402.6613,146.7971 404.1363,201.944 405.6112,258.7032 407.0862,313.494 408.5612,362.86 410.0361,403.6868 411.511,433.3991 412.986,450.1223 414.4609,452.8016 415.9359,441.2679 417.4109,416.2488 418.8858,379.3227 420.3607,332.8189 421.8357,279.6711 423.3106,223.2323 424.7856,167.0626 426.2606,114.7057 427.7355,69.46436 429.2104,34.19266 430.6854,11.11567 432.1603,1.689194 433.6353,6.5079 435.1103,25.26781 436.5852,56.78545 438.0602,99.07256 439.5351,149.4615 441.01,204.7734 442.485,261.5191 443.96,316.1188 445.4349,365.128 446.9099,405.4551 448.3848,434.556 449.8597,450.5949 451.3347,452.5601 452.8096,440.3275 454.2846,414.6688 455.7596,377.2027 457.2345,330.2928 458.7094,276.8983 460.1844,220.3875 461.6593,164.3254 463.1343,112.2488 464.6093,67.44269 466.0842,32.73377 467.5591,10.3116 469.0341,1.590683 470.509,7.121153 471.984,26.55414 473.459,58.6637 474.9339,101.4242 476.4088,152.1382 477.8838,207.6064 479.3587,264.3297 480.8337,318.7295 482.3087,367.3742 483.7836,407.1951 485.2585,435.6801 486.7335,451.0321 488.2084,452.2828 489.6834,439.3532 491.1584,413.0591 492.6333,375.0591 494.1082,327.7504 495.5832,274.1175 497.0581,217.5438 498.5331,161.5983 500.008,109.8101 501.483,65.44638 502.9579,31.30576 504.4329,9.541969 505.9078,1.527977 507.3828,7.769335 508.8577,27.87231 510.3327,60.56871 511.8076,103.7959 513.2826,154.827 514.7576,210.4426 516.2325,187.8668 517.7075,133.6754 519.1824,85.40282 520.6573,46.09445 522.1323,18.22998 523.6072,3.567236 525.0822,3.031184 526.5571,16.65565 528.0321,43.58116 529.507,82.10912 530.982,129.809 532.4569,183.6717 533.9319,240.2993 535.4069,296.1196 536.8818,347.611 538.3568,391.5253 539.8317,425.0922 541.3066,446.1942 542.7816,453.5 544.2565,446.5487 545.7315,425.779 547.2064,392.5009 548.6814,348.8139 550.1563,297.4739 551.6313,241.7197 553.1063,185.0684 554.5812,131.094 556.0562,83.20131 557.5311,44.41168 559.006,17.1721 560.481,3.200982 561.9559,3.379657 563.4309,17.69689 564.9058,45.24945 566.3808,84.29924 567.8557,132.3828 569.3307,186.4668 570.8056,243.1394 572.2806,298.8254 573.7556,350.0119 575.2305,393.4699 576.7054,426.4578 578.1804,446.8946 579.6553,453.491 581.1303,445.831 582.6052,424.3977 584.0802,390.5432 585.5551,346.4034 587.0301,294.7625 588.505,238.8785 589.98,272.7243 591.455,326.4732 592.9299,373.9784 594.4048,412.2432 595.8798,438.8535 597.3547,452.1308 598.8297,451.2374 600.3046,436.2297 601.7796,408.0544 603.2545,368.489 604.7295,320.0294 606.2044,265.7327 607.6794,209.0242 609.1544,153.4812 610.6293,102.6076 612.1042,59.61289 613.5792,27.20926 615.0541,7.440879 616.5291,1.554851 618.004,9.922476 619.479,32.01589 620.9539,66.44134 622.4289,111.0271 623.9038,162.9606 625.3788,218.9655 626.8537,275.5088 628.3287,329.0236 629.8036,376.1338 631.2786,413.8676 632.7535,439.8446 634.2285,452.4259 635.7034,450.8179 637.1783,435.1221 638.6533,406.3286 640.1283,366.2539 641.6032,317.4259 643.0782,262.9251 644.5531,206.1895 646.0281,150.7983 647.5031,100.2459 648.978,57.72121 650.4529,25.90698 651.9279,6.810155 653.4028,1.635459 654.8777,10.70934 656.3527,33.45937 657.8277,68.45037 659.3026,113.475 660.7776,165.6928 662.2525,221.8098 663.7275,278.2857 665.2024,331.5579 666.6774,378.2657 668.1523,415.4626 669.6273,440.8019 671.1022,452.6853 672.5771,450.363 674.0521,433.9816 675.5271,404.5745 677.002,363.9967 678.477,314.8081 679.9519,260.1118 681.4269,203.3583 682.9018,148.1277 684.3768,97.90434 685.8517,55.85646 687.3267,24.63667 688.8016,6.214414 690.2766,1.751886 691.7515,11.53058 693.2264,34.93361 694.7014,70.48462 696.1764,115.9409 697.6513,168.4348 699.1263,224.6549 700.6012,281.0545 702.0762,334.0757 703.5511,380.3736 705.0261,417.0276 706.501,441.7255 707.976,452.909 709.4509,449.8728 710.9258,432.8084 712.4008,402.7922 713.8758,361.7179 715.3507,312.1765 716.8257,257.2934 718.3006,200.5308 719.7756,145.4697 721.2505,95.58332 722.7255,54.01892 724.2004,23.39851 725.6754,5.653764 727.1503,1.904092 728.6252,12.38605 730.1002,36.43839 731.5751,72.54376 733.0501,118.4245 734.5251,171.1862 736,227.5005 "></polyline>
<polygon fill="url(#grad0)" stroke="none" points="0,227.5005 0,227.5005 0,227.5005 1.47495,171.1862 2.9499,118.4245 4.42485,72.54376 5.8998,36.43839 7.37475,12.38605 8.8497,1.904092 10.32465,5.653764 11.7996,23.39851 13.27455,54.01892 14.7495,95.58332 16.22445,145.4697 17.6994,200.5308 19.17435,257.2934 20.6493,312.1765 22.12425,361.7179 23.5992,402.7922 25.07415,432.8084 26.5491,449.8728 28.02405,452.909 29.499,441.7255 30.97395,417.0276 32.4489,380.3736 33.92385,334.0757 35.3988,281.0545 36.87375,224.6549 38.3487,168.4348 39.82365,115.9409 41.2986,70.48462 42.77355,34.93361 44.2485,11.53058 45.72345,1.751886 47.1984,6.214414 48.67335,24.63667 50.1483,55.85646 51.62325,97.90434 53.0982,148.1277 54.57315,203.3583 56.0481,260.1118 57.52305,314.8081 58.998,363.9967 60.47295,404.5745 61.9479,433.9816 63.42285,450.363 64.8978,452.6853 66.37275,440.8019 67.84769,415.4626 69.32265,378.2657 70.7976,331.5579 72.27254,278.2857 73.7475,221.8098 75.22245,165.6928 76.6974,113.475 78.17235,68.45037 79.64729,33.45937 81.12225,10.70934 82.5972,1.635459 84.07214,6.810155 85.5471,25.90698 87.02205,57.72121 88.49699,100.2459 89.97195,150.7983 91.44689,206.1895 92.92184,262.9251 94.3968,317.4259 95.87175,366.2539 97.3467,406.3286 98.82165,435.1221 100.2966,450.8179 101.7716,452.4259 103.2465,439.8446 104.7215,413.8676 106.1964,376.1338 107.6713,329.0236 109.1463,275.5088 110.6212,218.9655 112.0962,162.9606 113.5712,111.0271 115.0461,66.44134 116.521,32.01589 117.996,9.922476 119.4709,1.554851 120.9459,7.440879 122.4208,27.20926 123.8958,59.61289 125.3708,102.6076 126.8457,153.4812 128.3206,209.0242 129.7956,265.7327 131.2706,320.0294 132.7455,368.489 134.2204,408.0544 135.6954,436.2297 137.1703,451.2374 138.6453,452.1308 140.1202,438.8535 141.5952,412.2432 143.0701,373.9784 144.5451,326.4732 146.0201,272.7243 147.495,238.8785 148.9699,294.7625 150.4449,346.4034 151.9198,390.5432 153.3948,424.3977 154.8698,445.831 156.3447,453.491 157.8196,446.8946 159.2946,426.4578 160.7695,393.4699 162.2445,350.0119 163.7194,298.8254 165.1944,243.1394 166.6693,186.4668 168.1443,132.3828 169.6192,84.29924 171.0942,45.24945 172.5691,17.69689 174.0441,3.379657 175.519,3.200982 176.994,17.1721 178.4689,44.41168 179.9439,83.20131 181.4188,131.094 182.8938,185.0684 184.3687,241.7197 185.8437,297.4739 187.3186,348.8139 188.7936,392.5009 190.2686,425.779 191.7435,446.5487 193.2184,453.5 194.6934,446.1942 196.1684,425.0922 197.6433,391.5253 199.1183,347.611 200.5932,296.1196 202.0681,240.2993 203.5431,183.6717 205.0181,129.809 206.493,82.10912 207.968,43.58116 209.4429,16.65565 210.9178,3.031184 212.3928,3.567236 213.8678,18.22998 215.3427,46.09445 216.8176,85.40282 218.2926,133.6754 219.7675,187.8668 221.2425,210.4426 222.7175,154.827 224.1924,103.7959 225.6673,60.56871 227.1423,27.87231 228.6172,7.769335 230.0922,1.527977 231.5672,9.541969 233.0421,31.30576 234.517,65.44638 235.992,109.8101 237.4669,161.5983 238.9419,217.5438 240.4168,274.1175 241.8918,327.7504 243.3667,375.0591 244.8417,413.0591 246.3167,439.3532 247.7916,452.2828 249.2665,451.0321 250.7415,435.6801 252.2164,407.1951 253.6914,367.3742 255.1664,318.7295 256.6413,264.3297 258.1162,207.6064 259.5912,152.1382 261.0661,101.4242 262.5411,58.6637 264.0161,26.55414 265.491,7.121153 266.9659,1.590683 268.4409,10.3116 269.9158,32.73377 271.3908,67.44269 272.8658,112.2488 274.3407,164.3254 275.8156,220.3875 277.2906,276.8983 278.7655,330.2928 280.2405,377.2027 281.7155,414.6688 283.1904,440.3275 284.6653,452.5601 286.1403,450.5949 287.6152,434.556 289.0902,405.4551 290.5652,365.128 292.0401,316.1188 293.515,261.5191 294.99,204.7734 296.4649,149.4615 297.9399,99.07256 299.4148,56.78545 300.8898,25.26781 302.3647,6.5079 303.8397,1.689194 305.3146,11.11567 306.7896,34.19266 308.2645,69.46436 309.7395,114.7057 311.2144,167.0626 312.6894,223.2323 314.1643,279.6711 315.6393,332.8189 317.1142,379.3227 318.5892,416.2488 320.0641,441.2679 321.5391,452.8016 323.014,450.1223 324.489,433.3991 325.9639,403.6868 327.4389,362.86 328.9138,313.494 330.3888,258.7032 331.8637,201.944 333.3387,146.7971 334.8136,96.74123 336.2886,54.93427 337.7635,24.01355 339.2385,5.929698 340.7134,1.82351 342.1884,11.95404 343.6633,35.68219 345.1383,71.5111 346.6132,117.1805 348.0882,169.8094 349.5631,226.0777 351.0381,282.4358 352.513,335.3283 353.988,381.4185 355.4629,417.799 356.9379,442.1745 358.4128,453.0075 359.8878,449.6145 361.3627,432.2095 362.8377,401.8907 364.3126,360.5705 365.7876,310.8556 367.2625,255.8824 368.7375,255.8824 370.2124,310.8556 371.6874,360.5705 373.1623,401.8907 374.6373,432.2095 376.1122,449.6145 377.5872,453.0075 379.0622,442.1745 380.5371,417.799 382.0121,381.4185 383.487,335.3283 384.9619,282.4358 386.4369,226.0777 387.9119,169.8094 389.3868,117.1805 390.8618,71.5111 392.3367,35.68219 393.8116,11.95404 395.2866,1.82351 396.7616,5.929698 398.2365,24.01355 399.7115,54.93427 401.1864,96.74123 402.6613,146.7971 404.1363,201.944 405.6112,258.7032 407.0862,313.494 408.5612,362.86 410.0361,403.6868 411.511,433.3991 412.986,450.1223 414.4609,452.8016 415.9359,441.2679 417.4109,416.2488 418.8858,379.3227 420.3607,332.8189 421.8357,279.6711 423.3106,223.2323 424.7856,167.0626 426.2606,114.7057 427.7355,69.46436 429.2104,34.19266 430.6854,11.11567 432.1603,1.689194 433.6353,6.5079 435.1103,25.26781 436.5852,56.78545 438.0602,99.07256 439.5351,149.4615 441.01,204.7734 442.485,261.5191 443.96,316.1188 445.4349,365.128 446.9099,405.4551 448.3848,434.556 449.8597,450.5949 451.3347,452.5601 452.8096,440.3275 454.2846,414.6688 455.7596,377.2027 457.2345,330.2928 458.7094,276.8983 460.1844,220.3875 461.6593,164.3254 463.1343,112.2488 464.6093,67.44269 466.0842,32.73377 467.5591,10.3116 469.0341,1.590683 470.509,7.121153 471.984,26.55414 473.459,58.6637 474.9339,101.4242 476.4088,152.1382 477.8838,207.6064 479.3587,264.3297 480.8337,318.7295 482.3087,367.3742 483.7836,407.1951 485.2585,435.6801 486.7335,451.0321 488.2084,452.2828 489.6834,439.3532 491.1584,413.0591 492.6333,375.0591 494.1082,327.7504 495.5832,274.1175 497.0581,217.5438 498.5331,161.5983 500.008,109.8101 501.483,65.44638 502.9579,31.30576 504.4329,9.541969 505.9078,1.527977 507.3828,7.769335 508.8577,27.87231 510.3327,60.56871 511.8076,103.7959 513.2826,154.827 514.7576,210.4426 516.2325,187.8668 517.7075,133.6754 519.1824,85.40282 520.6573,46.09445 522.1323,18.22998 523.6072,3.567236 525.0822,3.031184 526.5571,16.65565 528.0321,43.58116 529.507,82.10912 530.982,129.809 532.4569,183.6717 533.9319,240.2993 535.4069,296.1196 536.8818,347.611 538.3568,391.5253 539.8317,425.0922 541.3066,446.1942 542.7816,453.5 544.2565,446.5487 545.7315,425.779 547.2064,392.5009 548.6814,348.8139 550.1563,297.4739 551.6313,241.7197 553.1063,185.0684 554.5812,131.094 556.0562,83.20131 557.5311,44.41168 559.006,17.1721 560.481,3.200982 561.9559,3.379657 563.4309,17.69689 564.9058,45.24945 566.3808,84.29924 567.8557,132.3828 569.3307,186.4668 570.8056,243.1394 572.2806,298.8254 573.7556,350.0119 575.2305,393.4699 576.7054,426.4578 578.1804,446.8946 579.6553,453.491 581.1303,445.831 582.6052,424.3977 584.0802,390.5432 585.5551,346.4034 587.0301,294.7625 588.505,238.8785 589.98,272.7243 591.455,326.4732 592.9299,373.9784 594.4048,412.2432 595.8798,438.8535 597.3547,452.1308 598.8297,451.2374 600.3046,436.2297 601.7796,408.0544 603.2545,368.489 604.7295,320.0294 606.2044,265.7327 607.6794,209.0242 609.1544,153.4812 610.6293,102.6076 612.1042,59.61289 613.5792,27.20926 615.0541,7.440879 616.5291,1.554851 618.004,9.922476 619.479,32.01589 620.9539,66.44134 622.4289,111.0271 623.9038,162.9606 625.3788,218.9655 626.8537,275.5088 628.3287,329.0236 629.8036,376.1338 631.2786,413.8676 632.7535,439.8446 634.2285,452.4259 635.7034,450.8179 637.1783,435.1221 638.6533,406.3286 640.1283,366.2539 641.6032,317.4259 643.0782,262.9251 644.5531,206.1895 646.0281,150.7983 647.5031,100.2459 648.978,57.72121 650.4529,25.90698 651.9279,6.810155 653.4028,1.635459 654.8777,10.70934 656.3527,33.45937 657.8277,68.45037 659.3026,113.475 660.7776,165.6928 662.2525,221.8098 663.7275,278.2857 665.2024,331.5579 666.6774,378.2657 668.1523,415.4626 669.6273,440.8019 671.1022,452.6853 672.5771,450.363 674.0521,433.9816 675.5271,404.5745 677.002,363.9967 678.477,314.8081 679.9519,260.1118 681.4269,203.3583 682.9018,148.1277 684.3768,97.90434 685.8517,55.85646 687.3267,24.63667 688.8016,6.214414 690.2766,1.751886 691.7515,11.53058 693.2264,34.93361 694.7014,70.48462 696.1764,115.9409 697.6513,168.4348 699.1263,224.6549 700.6012,281.0545 702.0762,334.0757 703.5511,380.3736 705.0261,417.0276 706.501,441.7255 707.976,452.909 709.4509,449.8728 710.9258,432.8084 712.4008,402.7922 713.8758,361.7179 715.3507,312.1765 716.8257,257.2934 718.3006,200.5308 719.7756,145.4697 721.2505,95.58332 722.7255,54.01892 724.2004,23.39851 725.6754,5.653764 727.1503,1.904092 728.6252,12.38605 730.1002,36.43839 731.5751,72.54376 733.0501,118.4245 734.5251,171.1862 736,227.5005 736,227.5005 "></polygon>
</g>
<g id="data">
<polyline stroke="#9400D3" stroke-opacity="0.6431373" stroke-linecap="round" stroke-linejoin="round" stroke-width="3" fill="none" points="0,1.499985 1.47495,1.499985 2.9499,1.499985 4.42485,1.499985 5.8998,1.499985 7.37475,1.499985 8.8497,1.499985 10.32465,1.499985 11.7996,1.499985 13.27455,1.499985 14.7495,1.499985 16.22445,1.499985 17.6994,1.499985 19.17435,1.499985 20.6493,1.499985 22.12425,1.499985 23.5992,1.499985 25.07415,1.499985 26.5491,1.499985 28.02405,1.499985 29.499,1.499985 30.97395,1.499985 32.4489,1.499985 33.92385,1.499985 35.3988,1.499985 36.87375,1.499985 38.3487,1.499985 39.82365,1.499985 41.2986,1.499985 42.77355,1.499985 44.2485,1.499985 45.72345,1.499985 47.1984,1.499985 48.67335,1.499985 50.1483,1.499985 51.62325,1.499985 53.0982,1.499985 54.57315,1.499985 56.0481,1.499985 57.52305,1.499985 58.998,1.499985 60.47295,1.499985 61.9479,1.499985 63.42285,1.499985 64.8978,1.499985 66.37275,1.499985 67.84769,1.499985 69.32265,1.499985 70.7976,1.499985 72.27254,1.499985 73.7475,1.499985 75.22245,1.499985 76.6974,1.499985 78.17235,1.499985 79.64729,1.499985 81.12225,1.499985 82.5972,1.499985 84.07214,1.499985 85.5471,1.499985 87.02205,1.499985 88.49699,1.499985 89.97195,1.499985 91.44689,1.499985 92.92184,1.499985 94.3968,1.499985 95.87175,1.499985 97.3467,1.499985 98.82165,1.499985 100.2966,1.499985 101.7716,1.499985 103.2465,1.499985 104.7215,1.499985 106.1964,1.499985 107.6713,1.499985 109.1463,1.499985 110.6212,1.499985 112.0962,1.499985 113.5712,1.499985 115.0461,1.499985 116.521,1.499985 117.996,1.499985 119.4709,1.499985 120.9459,1.499985 122.4208,1.499985 123.8958,1.499985 125.3708,1.499985 126.8457,1.499985 128.3206,1.499985 129.7956,1.499985 131.2706,1.499985 132.7455,1.499985 134.2204,1.499985 135.6954,1.499985 137.1703,1.499985 138.6453,1.499985 140.1202,1.499985 141.5952,1.499985 143.0701,1.499985 144.5451,1.499985 146.0201,1.499985 147.495,227.5005 148.9699,227.5005 150.4449,227.5005 151.9198,227.5005 153.3948,227.5005 154.8698,227.5005 156.3447,227.5005 157.8196,227.5005 159.2946,227.5005 160.7695,227.5005 162.2445,227.5005 163.7194,227.5005 165.1944,227.5005 166.6693,227.5005 168.1443,227.5005 169.6192,227.5005 171.0942,227.5005 172.5691,227.5005 174.0441,227.5005 175.519,227.5005 176.994,227.5005 178.4689,227.5005 179.9439,227.5005 181.4188,227.5005 182.8938,227.5005 184.3687,227.5005 185.8437,227.5005 187.3186,227.5005 188.7936,227.5005 190.2686,227.5005 191.7435,227.5005 193.2184,227.5005 194.6934,227.5005 196.1684,227.5005 197.6433,227.5005 199.1183,227.5005 200.5932,227.5005 202.0681,227.5005 203.5431,227.5005 205.0181,227.5005 206.493,227.5005 207.968,227.5005 209.4429,227.5005 210.9178,227.5005 212.3928,227.5005 213.8678,227.5005 215.3427,227.5005 216.8176,227.5005 218.2926,227.5005 219.7675,227.5005 221.2425,1.499985 222.7175,1.499985 224.1924,1.499985 225.6673,1.499985 227.1423,1.499985 228.6172,1.499985 230.0922,1.499985 231.5672,1.499985 233.0421,1.499985 234.517,1.499985 235.992,1.499985 237.4669,1.499985 238.9419,1.499985 240.4168,1.499985 241.8918,1.499985 243.3667,1.499985 244.8417,1.499985 246.3167,1.499985 247.7916,1.499985 249.2665,1.499985 250.7415,1.499985 252.2164,1.499985 253.6914,1.499985 255.1664,1.499985 256.6413,1.499985 258.1162,1.499985 259.5912,1.499985 261.0661,1.499985 262.5411,1.499985 264.0161,1.499985 265.491,1.499985 266.9659,1.499985 268.4409,1.499985 269.9158,1.499985 271.3908,1.499985 272.8658,1.499985 274.3407,1.499985 275.8156,1.499985 277.2906,1.499985 278.7655,1.499985 280.2405,1.499985 281.7155,1.499985 283.1904,1.499985 284.6653,1.499985 286.1403,1.499985 287.6152,1.499985 289.0902,1.499985 290.5652,1.499985 292.0401,1.499985 293.515,1.499985 294.99,1.499985 296.4649,1.499985 297.9399,1.499985 299.4148,1.499985 300.8898,1.499985 302.3647,1.499985 303.8397,1.499985 305.3146,1.499985 306.7896,1.499985 308.2645,1.499985 309.7395,1.499985 311.2144,1.499985 312.6894,1.499985 314.1643,1.499985 315.6393,1.499985 317.1142,1.499985 318.5892,1.499985 320.0641,1.499985 321.5391,1.499985 323.014,1.499985 324.489,1.499985 325.9639,1.499985 327.4389,1.499985 328.9138,1.499985 330.3888,1.499985 331.8637,1.499985 333.3387,1.499985 334.8136,1.499985 336.2886,1.499985 337.7635,1.499985 339.2385,1.499985 340.7134,1.499985 342.1884,1.499985 343.6633,1.499985 345.1383,1.499985 346.6132,1.499985 348.0882,1.499985 349.5631,1.499985 351.0381,1.499985 352.513,1.499985 353.988,1.499985 355.4629,1.499985 356.9379,1.499985 358.4128,1.499985 359.8878,1.499985 361.3627,1.499985 362.8377,1.499985 364.3126,1.499985 365.7876,1.499985 367.2625,1.499985 368.7375,227.5005 370.2124,227.5005 371.6874,227.5005 373.1623,227.5005 374.6373,227.5005 376.1122,227.5005 377.5872,227.5005 379.0622,227.5005 380.5371,227.5005 382.0121,227.5005 383.487,227.5005 384.9619,227.5005 386.4369,227.5005 387.9119,227.5005 389.3868,227.5005 390.8618,227.5005 392.3367,227.5005 393.8116,227.5005 395.2866,227.5005 396.7616,227.5005 398.2365,227.5005 399.7115,227.5005 401.1864,227.5005 402.6613,227.5005 404.1363,227.5005 405.6112,227.5005 407.0862,227.5005 408.5612,227.5005 410.0361,227.5005 411.511,227.5005 412.986,227.5005 414.4609,227.5005 415.9359,227.5005 417.4109,227.5005 418.8858,227.5005 420.3607,227.5005 421.8357,227.5005 423.3106,227.5005 424.7856,227.5005 426.2606,227.5005 427.7355,227.5005 429.2104,227.5005 430.6854,227.5005 432.1603,227.5005 433.6353,227.5005 435.1103,227.5005 436.5852,227.5005 438.0602,227.5005 439.5351,227.5005 441.01,227.5005 442.485,227.5005 443.96,227.5005 445.4349,227.5005 446.9099,227.5005 448.3848,227.5005 449.8597,227.5005 451.3347,227.5005 452.8096,227.5005 454.2846,227.5005 455.7596,227.5005 457.2345,227.5005 458.7094,227.5005 460.1844,227.5005 461.6593,227.5005 463.1343,227.5005 464.6093,227.5005 466.0842,227.5005 467.5591,227.5005 469.0341,227.5005 470.509,227.5005 471.984,227.5005 473.459,227.5005 474.9339,227.5005 476.4088,227.5005 477.8838,227.5005 479.3587,227.5005 480.8337,227.5005 482.3087,227.5005 483.7836,227.5005 485.2585,227.5005 486.7335,227.5005 488.2084,227.5005 489.6834,227.5005 491.1584,227.5005 492.6333,227.5005 494.1082,227.5005 495.5832,227.5005 497.0581,227.5005 498.5331,227.5005 500.008,227.5005 501.483,227.5005 502.9579,227.5005 504.4329,227.5005 505.9078,227.5005 507.3828,227.5005 508.8577,227.5005 510.3327,227.5005 511.8076,227.5005 513.2826,227.5005 514.7576,227.5005 516.2325,1.499985 517.7075,1.499985 519.1824,1.499985 520.6573,1.499985 522.1323,1.499985 523.6072,1.499985 525.0822,1.499985 526.5571,1.499985 528.0321,1.499985 529.507,1.499985 530.982,1.499985 532.4569,1.499985 533.9319,1.499985 535.4069,1.499985 536.8818,1.499985 538.3568,1.499985 539.8317,1.499985 541.3066,1.499985 542.7816,1.499985 544.2565,1.499985 545.7315,1.499985 547.2064,1.499985 548.6814,1.499985 550.1563,1.499985 551.6313,1.499985 553.1063,1.499985 554.5812,1.499985 556.0562,1.499985 557.5311,1.499985 559.006,1.499985 560.481,1.499985 561.9559,1.499985 563.4309,1.499985 564.9058,1.499985 566.3808,1.499985 567.8557,1.499985 569.3307,1.499985 570.8056,1.499985 572.2806,1.499985 573.7556,1.499985 575.2305,1.499985 576.7054,1.499985 578.1804,1.499985 579.6553,1.499985 581.1303,1.499985 582.6052,1.499985 584.0802,1.499985 585.5551,1.499985 587.0301,1.499985 588.505,1.499985 589.98,227.5005 591.455,227.5005 592.9299,227.5005 594.4048,227.5005 595.8798,227.5005 597.3547,227.5005 598.8297,227.5005 600.3046,227.5005 601.7796,227.5005 603.2545,227.5005 604.7295,227.5005 606.2044,227.5005 607.6794,227.5005 609.1544,227.5005 610.6293,227.5005 612.1042,227.5005 613.5792,227.5005 615.0541,227.5005 616.5291,227.5005 618.004,227.5005 619.479,227.5005 620.9539,227.5005 622.4289,227.5005 623.9038,227.5005 625.3788,227.5005 626.8537,227.5005 628.3287,227.5005 629.8036,227.5005 631.2786,227.5005 632.7535,227.5005 634.2285,227.5005 635.7034,227.5005 637.1783,227.5005 638.6533,227.5005 640.1283,227.5005 641.6032,227.5005 643.0782,227.5005 644.5531,227.5005 646.0281,227.5005 647.5031,227.5005 648.978,227.5005 650.4529,227.5005 651.9279,227.5005 653.4028,227.5005 654.8777,227.5005 656.3527,227.5005 657.8277,227.5005 659.3026,227.5005 660.7776,227.5005 662.2525,227.5005 663.7275,227.5005 665.2024,227.5005 666.6774,227.5005 668.1523,227.5005 669.6273,227.5005 671.1022,227.5005 672.5771,227.5005 674.0521,227.5005 675.5271,227.5005 677.002,227.5005 678.477,227.5005 679.9519,227.5005 681.4269,227.5005 682.9018,227.5005 684.3768,227.5005 685.8517,227.5005 687.3267,227.5005 688.8016,227.5005 690.2766,227.5005 691.7515,227.5005 693.2264,227.5005 694.7014,227.5005 696.1764,227.5005 697.6513,227.5005 699.1263,227.5005 700.6012,227.5005 702.0762,227.5005 703.5511,227.5005 705.0261,227.5005 706.501,227.5005 707.976,227.5005 709.4509,227.5005 710.9258,227.5005 712.4008,227.5005 713.8758,227.5005 715.3507,227.5005 716.8257,227.5005 718.3006,227.5005 719.7756,227.5005 721.2505,227.5005 722.7255,227.5005 724.2004,227.5005 725.6754,227.5005 727.1503,227.5005 728.6252,227.5005 730.1002,227.5005 731.5751,227.5005 733.0501,227.5005 734.5251,227.5005 736,227.5005 "></polyline>
<polygon fill="url(#grad1)" stroke="none" points="0,227.5005 0,1.499985 0,1.499985 1.47495,1.499985 2.9499,1.499985 4.42485,1.499985 5.8998,1.499985 7.37475,1.499985 8.8497,1.499985 10.32465,1.499985 11.7996,1.499985 13.27455,1.499985 14.7495,1.499985 16.22445,1.499985 17.6994,1.499985 19.17435,1.499985 20.6493,1.499985 22.12425,1.499985 23.5992,1.499985 25.07415,1.499985 26.5491,1.499985 28.02405,1.499985 29.499,1.499985 30.97395,1.499985 32.4489,1.499985 33.92385,1.499985 35.3988,1.499985 36.87375,1.499985 38.3487,1.499985 39.82365,1.499985 41.2986,1.499985 42.77355,1.499985 44.2485,1.499985 45.72345,1.499985 47.1984,1.499985 48.67335,1.499985 50.1483,1.499985 51.62325,1.499985 53.0982,1.499985 54.57315,1.499985 56.0481,1.499985 57.52305,1.499985 58.998,1.499985 60.47295,1.499985 61.9479,1.499985 63.42285,1.499985 64.8978,1.499985 66.37275,1.499985 67.84769,1.499985 69.32265,1.499985 70.7976,1.499985 72.27254,1.499985 73.7475,1.499985 75.22245,1.499985 76.6974,1.499985 78.17235,1.499985 79.64729,1.499985 81.12225,1.499985 82.5972,1.499985 84.07214,1.499985 85.5471,1.499985 87.02205,1.499985 88.49699,1.499985 89.97195,1.499985 91.44689,1.499985 92.92184,1.499985 94.3968,1.499985 95.87175,1.499985 97.3467,1.499985 98.82165,1.499985 100.2966,1.499985 101.7716,1.499985 103.2465,1.499985 104.7215,1.499985 106.1964,1.499985 107.6713,1.499985 109.1463,1.499985 110.6212,1.499985 112.0962,1.499985 113.5712,1.499985 115.0461,1.499985 116.521,1.499985 117.996,1.499985 119.4709,1.499985 120.9459,1.499985 122.4208,1.499985 123.8958,1.499985 125.3708,1.499985 126.8457,1.499985 128.3206,1.499985 129.7956,1.499985 131.2706,1.499985 132.7455,1.499985 134.2204,1.499985 135.6954,1.499985 137.1703,1.499985 138.6453,1.499985 140.1202,1.499985 141.5952,1.499985 143.0701,1.499985 144.5451,1.499985 146.0201,1.499985 147.495,227.5005 148.9699,227.5005 150.4449,227.5005 151.9198,227.5005 153.3948,227.5005 154.8698,227.5005 156.3447,227.5005 157.8196,227.5005 159.2946,227.5005 160.7695,227.5005 162.2445,227.5005 163.7194,227.5005 165.1944,227.5005 166.6693,227.5005 168.1443,227.5005 169.6192,227.5005 171.0942,227.5005 172.5691,227.5005 174.0441,227.5005 175.519,227.5005 176.994,227.5005 178.4689,227.5005 179.9439,227.5005 181.4188,227.5005 182.8938,227.5005 184.3687,227.5005 185.8437,227.5005 187.3186,227.5005 188.7936,227.5005 190.2686,227.5005 191.7435,227.5005 193.2184,227.5005 194.6934,227.5005 196.1684,227.5005 197.6433,227.5005 199.1183,227.5005 200.5932,227.5005 202.0681,227.5005 203.5431,227.5005 205.0181,227.5005 206.493,227.5005 207.968,227.5005 209.4429,227.5005 210.9178,227.5005 212.3928,227.5005 213.8678,227.5005 215.3427,227.5005 216.8176,227.5005 218.2926,227.5005 219.7675,227.5005 221.2425,1.499985 222.7175,1.499985 224.1924,1.499985 225.6673,1.499985 227.1423,1.499985 228.6172,1.499985 230.0922,1.499985 231.5672,1.499985 233.0421,1.499985 234.517,1.499985 235.992,1.499985 237.4669,1.499985 238.9419,1.499985 240.4168,1.499985 241.8918,1.499985 243.3667,1.499985 244.8417,1.499985 246.3167,1.499985 247.7916,1.499985 249.2665,1.499985 250.7415,1.499985 252.2164,1.499985 253.6914,1.499985 255.1664,1.499985 256.6413,1.499985 258.1162,1.499985 259.5912,1.499985 261.0661,1.499985 262.5411,1.499985 264.0161,1.499985 265.491,1.499985 266.9659,1.499985 268.4409,1.499985 269.9158,1.499985 271.3908,1.499985 272.8658,1.499985 274.3407,1.499985 275.8156,1.499985 277.2906,1.499985 278.7655,1.499985 280.2405,1.499985 281.7155,1.499985 283.1904,1.499985 284.6653,1.499985 286.1403,1.499985 287.6152,1.499985 289.0902,1.499985 290.5652,1.499985 292.0401,1.499985 293.515,1.499985 294.99,1.499985 296.4649,1.499985 297.9399,1.499985 299.4148,1.499985 300.8898,1.499985 302.3647,1.499985 303.8397,1.499985 305.3146,1.499985 306.7896,1.499985 308.2645,1.499985 309.7395,1.499985 311.2144,1.499985 312.6894,1.499985 314.1643,1.499985 315.6393,1.499985 317.1142,1.499985 318.5892,1.499985 320.0641,1.499985 321.5391,1.499985 323.014,1.499985 324.489,1.499985 325.9639,1.499985 327.4389,1.499985 328.9138,1.499985 330.3888,1.499985 331.8637,1.499985 333.3387,1.499985 334.8136,1.499985 336.2886,1.499985 337.7635,1.499985 339.2385,1.499985 340.7134,1.499985 342.1884,1.499985 343.6633,1.499985 345.1383,1.499985 346.6132,1.499985 348.0882,1.499985 349.5631,1.499985 351.0381,1.499985 352.513,1.499985 353.988,1.499985 355.4629,1.499985 356.9379,1.499985 358.4128,1.499985 359.8878,1.499985 361.3627,1.499985 362.8377,1.499985 364.3126,1.499985 365.7876,1.499985 367.2625,1.499985 368.7375,227.5005 370.2124,227.5005 371.6874,227.5005 373.1623,227.5005 374.6373,227.5005 376.1122,227.5005 377.5872,227.5005 379.0622,227.5005 380.5371,227.5005 382.0121,227.5005 383.487,227.5005 384.9619,227.5005 386.4369,227.5005 387.9119,227.5005 389.3868,227.5005 390.8618,227.5005 392.3367,227.5005 393.8116,227.5005 395.2866,227.5005 396.7616,227.5005 398.2365,227.5005 399.7115,227.5005 401.1864,227.5005 402.6613,227.5005 404.1363,227.5005 405.6112,227.5005 407.0862,227.5005 408.5612,227.5005 410.0361,227.5005 411.511,227.5005 412.986,227.5005 414.4609,227.5005 415.9359,227.5005 417.4109,227.5005 418.8858,227.5005 420.3607,227.5005 421.8357,227.5005 423.3106,227.5005 424.7856,227.5005 426.2606,227.5005 427.7355,227.5005 429.2104,227.5005 430.6854,227.5005 432.1603,227.5005 433.6353,227.5005 435.1103,227.5005 436.5852,227.5005 438.0602,227.5005 439.5351,227.5005 441.01,227.5005 442.485,227.5005 443.96,227.5005 445.4349,227.5005 446.9099,227.5005 448.3848,227.5005 449.8597,227.5005 451.3347,227.5005 452.8096,227.5005 454.2846,227.5005 455.7596,227.5005 457.2345,227.5005 458.7094,227.5005 460.1844,227.5005 461.6593,227.5005 463.1343,227.5005 464.6093,227.5005 466.0842,227.5005 467.5591,227.5005 469.0341,227.5005 470.509,227.5005 471.984,227.5005 473.459,227.5005 474.9339,227.5005 476.4088,227.5005 477.8838,227.5005 479.3587,227.5005 480.8337,227.5005 482.3087,227.5005 483.7836,227.5005 485.2585,227.5005 486.7335,227.5005 488.2084,227.5005 489.6834,227.5005 491.1584,227.5005 492.6333,227.5005 494.1082,227.5005 495.5832,227.5005 497.0581,227.5005 498.5331,227.5005 500.008,227.5005 501.483,227.5005 502.9579,227.5005 504.4329,227.5005 505.9078,227.5005 507.3828,227.5005 508.8577,227.5005 510.3327,227.5005 511.8076,227.5005 513.2826,227.5005 514.7576,227.5005 516.2325,1.499985 517.7075,1.499985 519.1824,1.499985 520.6573,1.499985 522.1323,1.499985 523.6072,1.499985 525.0822,1.499985 526.5571,1.499985 528.0321,1.499985 529.507,1.499985 530.982,1.499985 532.4569,1.499985 533.9319,1.499985 535.4069,1.499985 536.8818,1.499985 538.3568,1.499985 539.8317,1.499985 541.3066,1.499985 542.7816,1.499985 544.2565,1.499985 545.7315,1.499985 547.2064,1.499985 548.6814,1.499985 550.1563,1.499985 551.6313,1.499985 553.1063,1.499985 554.5812,1.499985 556.0562,1.499985 557.5311,1.499985 559.006,1.499985 560.481,1.499985 561.9559,1.499985 563.4309,1.499985 564.9058,1.499985 566.3808,1.499985 567.8557,1.499985 569.3307,1.499985 570.8056,1.499985 572.2806,1.499985 573.7556,1.499985 575.2305,1.499985 576.7054,1.499985 578.1804,1.499985 579.6553,1.499985 581.1303,1.499985 582.6052,1.499985 584.0802,1.499985 585.5551,1.499985 587.0301,1.499985 588.505,1.499985 589.98,227.5005 591.455,227.5005 592.9299,227.5005 594.4048,227.5005 595.8798,227.5005 597.3547,227.5005 598.8297,227.5005 600.3046,227.5005 601.7796,227.5005 603.2545,227.5005 604.7295,227.5005 606.2044,227.5005 607.6794,227.5005 609.1544,227.5005 610.6293,227.5005 612.1042,227.5005 613.5792,227.5005 615.0541,227.5005 616.5291,227.5005 618.004,227.5005 619.479,227.5005 620.9539,227.5005 622.4289,227.5005 623.9038,227.5005 625.3788,227.5005 626.8537,227.5005 628.3287,227.5005 629.8036,227.5005 631.2786,227.5005 632.7535,227.5005 634.2285,227.5005 635.7034,227.5005 637.1783,227.5005 638.6533,227.5005 640.1283,227.5005 641.6032,227.5005 643.0782,227.5005 644.5531,227.5005 646.0281,227.5005 647.5031,227.5005 648.978,227.5005 650.4529,227.5005 651.9279,227.5005 653.4028,227.5005 654.8777,227.5005 656.3527,227.5005 657.8277,227.5005 659.3026,227.5005 660.7776,227.5005 662.2525,227.5005 663.7275,227.5005 665.2024,227.5005 666.6774,227.5005 668.1523,227.5005 669.6273,227.5005 671.1022,227.5005 672.5771,227.5005 674.0521,227.5005 675.5271,227.5005 677.002,227.5005 678.477,227.5005 679.9519,227.5005 681.4269,227.5005 682.9018,227.5005 684.3768,227.5005 685.8517,227.5005 687.3267,227.5005 688.8016,227.5005 690.2766,227.5005 691.7515,227.5005 693.2264,227.5005 694.7014,227.5005 696.1764,227.5005 697.6513,227.5005 699.1263,227.5005 700.6012,227.5005 702.0762,227.5005 703.5511,227.5005 705.0261,227.5005 706.501,227.5005 707.976,227.5005 709.4509,227.5005 710.9258,227.5005 712.4008,227.5005 713.8758,227.5005 715.3507,227.5005 716.8257,227.5005 718.3006,227.5005 719.7756,227.5005 721.2505,227.5005 722.7255,227.5005 724.2004,227.5005 725.6754,227.5005 727.1503,227.5005 728.6252,227.5005 730.1002,227.5005 731.5751,227.5005 733.0501,227.5005 734.5251,227.5005 736,227.5005 736,227.5005 "></polygon>
</g>
<g id="Key">
<rect x="3" y="3" width="59" height="32" rx="8" ry="8" fill="#F2F2F2" fill-opacity="0.7490196" stroke="none"></rect>
<ellipse cx="11" cy="11" rx="7" ry="7" fill="#1472F0" fill-opacity="0.5019608" stroke="none"></ellipse>
<text x="21.5" y="16.2" fill="#1472F0" fill-opacity="1" font-family="sans-serif" font-size="14">bpsk</text>
<ellipse cx="11" cy="27" rx="7" ry="7" fill="#9400D3" fill-opacity="0.5019608" stroke="none"></ellipse>
<text x="21.5" y="32.2" fill="#9400D3" fill-opacity="1" font-family="sans-serif" font-size="14">data</text>
</g>
<defs>
<linearGradient id="grad0" x1="0%" y1="-0.005945958%" x2="0%" y2="100%">
<stop offset="0%" stop-color="#1472F0" stop-opacity="0.1882353"></stop>
<stop offset="50%" stop-color="#1472F0" stop-opacity="0.02352941"></stop>
<stop offset="100%" stop-color="#1472F0" stop-opacity="0.1882353"></stop>
</linearGradient>
<linearGradient id="grad1" x1="0%" y1="0%" x2="0%" y2="200%">
<stop offset="0%" stop-color="#9400D3" stop-opacity="0.1882353"></stop>
<stop offset="50%" stop-color="#9400D3" stop-opacity="0.02352941"></stop>
<stop offset="100%" stop-color="#9400D3" stop-opacity="0.1882353"></stop>
</linearGradient>
</defs>
</svg>
