<?xml version="1.0"?>


<svg viewBox="0 0 736 455" preserveAspectRatio="xMinYMin meet" version="1.1" xmlns="http://www.w3.org/2000/svg" width="736" height="455">
<g id="Axis">
<line x1="0" y1="453.5" x2="736" y2="453.5" stroke="#D4D4D4" stroke-opacity="1" stroke-width="1" stroke-linecap="round" fill="none"></line>
<line x1="0" y1="0" x2="0" y2="455" stroke="#D4D4D4" stroke-opacity="1" stroke-width="1" stroke-linecap="round" fill="none"></line>
</g>
<g id="data">
<polyline stroke="#1472F0" stroke-opacity="0.6431373" stroke-linecap="round" stroke-linejoin="round" stroke-width="3" fill="none" points="0,1.5 1.47495,1.5 2.9499,1.5 4.42485,1.5 5.8998,1.5 7.37475,1.5 8.8497,1.5 10.32465,1.5 11.7996,1.5 13.27455,1.5 14.7495,1.5 16.22445,1.5 17.6994,1.5 19.17435,1.5 20.6493,1.5 22.12425,1.5 23.5992,1.5 25.07415,1.5 26.5491,1.5 28.02405,1.5 29.499,1.5 30.97395,1.5 32.4489,1.5 33.92385,1.5 35.3988,1.5 36.87375,1.5 38.3487,1.5 39.82365,1.5 41.2986,1.5 42.77355,1.5 44.2485,1.5 45.72345,1.5 47.1984,1.5 48.67335,1.5 50.1483,1.5 51.62325,1.5 53.0982,1.5 54.57315,1.5 56.0481,1.5 57.52305,1.5 58.998,1.5 60.47295,1.5 61.9479,1.5 63.42285,1.5 64.8978,1.5 66.37275,1.5 67.84769,1.5 69.32265,1.5 70.7976,1.5 72.27254,1.5 73.7475,1.5 75.22245,1.5 76.6974,1.5 78.17235,1.5 79.64729,1.5 81.12225,1.5 82.5972,1.5 84.07214,1.5 85.5471,1.5 87.02205,1.5 88.49699,1.5 89.97195,1.5 91.44689,1.5 92.92184,1.5 94.3968,1.5 95.87175,1.5 97.3467,1.5 98.82165,1.5 100.2966,1.5 101.7716,1.5 103.2465,1.5 104.7215,1.5 106.1964,1.5 107.6713,1.5 109.1463,1.5 110.6212,1.5 112.0962,1.5 113.5712,1.5 115.0461,1.5 116.521,1.5 117.996,1.5 119.4709,1.5 120.9459,1.5 122.4208,1.5 123.8958,1.5 125.3708,1.5 126.8457,1.5 128.3206,1.5 129.7956,1.5 131.2706,1.5 132.7455,1.5 134.2204,1.5 135.6954,1.5 137.1703,1.5 138.6453,1.5 140.1202,1.5 141.5952,1.5 143.0701,1.5 144.5451,1.5 146.0201,1.5 147.495,453.5 148.9699,453.5 150.4449,453.5 151.9198,453.5 153.3948,453.5 154.8698,453.5 156.3447,453.5 157.8196,453.5 159.2946,453.5 160.7695,453.5 162.2445,453.5 163.7194,453.5 165.1944,453.5 166.6693,453.5 168.1443,453.5 169.6192,453.5 171.0942,453.5 172.5691,453.5 174.0441,453.5 175.519,453.5 176.994,453.5 178.4689,453.5 179.9439,453.5 181.4188,453.5 182.8938,453.5 184.3687,453.5 185.8437,453.5 187.3186,453.5 188.7936,453.5 190.2686,453.5 191.7435,453.5 193.2184,453.5 194.6934,453.5 196.1684,453.5 197.6433,453.5 199.1183,453.5 200.5932,453.5 202.0681,453.5 203.5431,453.5 205.0181,453.5 206.493,453.5 207.968,453.5 209.4429,453.5 210.9178,453.5 212.3928,453.5 213.8678,453.5 215.3427,453.5 216.8176,453.5 218.2926,453.5 219.7675,453.5 221.2425,1.5 222.7175,1.5 224.1924,1.5 225.6673,1.5 227.1423,1.5 228.6172,1.5 230.0922,1.5 231.5672,1.5 233.0421,1.5 234.517,1.5 235.992,1.5 237.4669,1.5 238.9419,1.5 240.4168,1.5 241.8918,1.5 243.3667,1.5 244.8417,1.5 246.3167,1.5 247.7916,1.5 249.2665,1.5 250.7415,1.5 252.2164,1.5 253.6914,1.5 255.1664,1.5 256.6413,1.5 258.1162,1.5 259.5912,1.5 261.0661,1.5 262.5411,1.5 264.0161,1.5 265.491,1.5 266.9659,1.5 268.4409,1.5 269.9158,1.5 271.3908,1.5 272.8658,1.5 274.3407,1.5 275.8156,1.5 277.2906,1.5 278.7655,1.5 280.2405,1.5 281.7155,1.5 283.1904,1.5 284.6653,1.5 286.1403,1.5 287.6152,1.5 289.0902,1.5 290.5652,1.5 292.0401,1.5 293.515,1.5 294.99,1.5 296.4649,1.5 297.9399,1.5 299.4148,1.5 300.8898,1.5 302.3647,1.5 303.8397,1.5 305.3146,1.5 306.7896,1.5 308.2645,1.5 309.7395,1.5 311.2144,1.5 312.6894,1.5 314.1643,1.5 315.6393,1.5 317.1142,1.5 318.5892,1.5 320.0641,1.5 321.5391,1.5 323.014,1.5 324.489,1.5 325.9639,1.5 327.4389,1.5 328.9138,1.5 330.3888,1.5 331.8637,1.5 333.3387,1.5 334.8136,1.5 336.2886,1.5 337.7635,1.5 339.2385,1.5 340.7134,1.5 342.1884,1.5 343.6633,1.5 345.1383,1.5 346.6132,1.5 348.0882,1.5 349.5631,1.5 351.0381,1.5 352.513,1.5 353.988,1.5 355.4629,1.5 356.9379,1.5 358.4128,1.5 359.8878,1.5 361.3627,1.5 362.8377,1.5 364.3126,1.5 365.7876,1.5 367.2625,1.5 368.7375,453.5 370.2124,453.5 371.6874,453.5 373.1623,453.5 374.6373,453.5 376.1122,453.5 377.5872,453.5 379.0622,453.5 380.5371,453.5 382.0121,453.5 383.487,453.5 384.9619,453.5 386.4369,453.5 387.9119,453.5 389.3868,453.5 390.8618,453.5 392.3367,453.5 393.8116,453.5 395.2866,453.5 396.7616,453.5 398.2365,453.5 399.7115,453.5 401.1864,453.5 402.6613,453.5 404.1363,453.5 405.6112,453.5 407.0862,453.5 408.5612,453.5 410.0361,453.5 411.511,453.5 412.986,453.5 414.4609,453.5 415.9359,453.5 417.4109,453.5 418.8858,453.5 420.3607,453.5 421.8357,453.5 423.3106,453.5 424.7856,453.5 426.2606,453.5 427.7355,453.5 429.2104,453.5 430.6854,453.5 432.1603,453.5 433.6353,453.5 435.1103,453.5 436.5852,453.5 438.0602,453.5 439.5351,453.5 441.01,453.5 442.485,453.5 443.96,453.5 445.4349,453.5 446.9099,453.5 448.3848,453.5 449.8597,453.5 451.3347,453.5 452.8096,453.5 454.2846,453.5 455.7596,453.5 457.2345,453.5 458.7094,453.5 460.1844,453.5 461.6593,453.5 463.1343,453.5 464.6093,453.5 466.0842,453.5 467.5591,453.5 469.0341,453.5 470.509,453.5 471.984,453.5 473.459,453.5 474.9339,453.5 476.4088,453.5 477.8838,453.5 479.3587,453.5 480.8337,453.5 482.3087,453.5 483.7836,453.5 485.2585,453.5 486.7335,453.5 488.2084,453.5 489.6834,453.5 491.1584,453.5 492.6333,453.5 494.1082,453.5 495.5832,453.5 497.0581,453.5 498.5331,453.5 500.008,453.5 501.483,453.5 502.9579,453.5 504.4329,453.5 505.9078,453.5 507.3828,453.5 508.8577,453.5 510.3327,453.5 511.8076,453.5 513.2826,453.5 514.7576,453.5 516.2325,1.5 517.7075,1.5 519.1824,1.5 520.6573,1.5 522.1323,1.5 523.6072,1.5 525.0822,1.5 526.5571,1.5 528.0321,1.5 529.507,1.5 530.982,1.5 532.4569,1.5 533.9319,1.5 535.4069,1.5 536.8818,1.5 538.3568,1.5 539.8317,1.5 541.3066,1.5 542.7816,1.5 544.2565,1.5 545.7315,1.5 547.2064,1.5 548.6814,1.5 550.1563,1.5 551.6313,1.5 553.1063,1.5 554.5812,1.5 556.0562,1.5 557.5311,1.5 559.006,1.5 560.481,1.5 561.9559,1.5 563.4309,1.5 564.9058,1.5 566.3808,1.5 567.8557,1.5 569.3307,1.5 570.8056,1.5 572.2806,1.5 573.7556,1.5 575.2305,1.5 576.7054,1.5 578.1804,1.5 579.6553,1.5 581.1303,1.5 582.6052,1.5 584.0802,1.5 585.5551,1.5 587.0301,1.5 588.505,1.5 589.98,453.5 591.455,453.5 592.9299,453.5 594.4048,453.5 595.8798,453.5 597.3547,453.5 598.8297,453.5 600.3046,453.5 601.7796,453.5 603.2545,453.5 604.7295,453.5 606.2044,453.5 607.6794,453.5 609.1544,453.5 610.6293,453.5 612.1042,453.5 613.5792,453.5 615.0541,453.5 616.5291,453.5 618.004,453.5 619.479,453.5 620.9539,453.5 622.4289,453.5 623.9038,453.5 625.3788,453.5 626.8537,453.5 628.3287,453.5 629.8036,453.5 631.2786,453.5 632.7535,453.5 634.2285,453.5 635.7034,453.5 637.1783,453.5 638.6533,453.5 640.1283,453.5 641.6032,453.5 643.0782,453.5 644.5531,453.5 646.0281,453.5 647.5031,453.5 648.978,453.5 650.4529,453.5 651.9279,453.5 653.4028,453.5 654.8777,453.5 656.3527,453.5 657.8277,453.5 659.3026,453.5 660.7776,453.5 662.2525,453.5 663.7275,453.5 665.2024,453.5 666.6774,453.5 668.1523,453.5 669.6273,453.5 671.1022,453.5 672.5771,453.5 674.0521,453.5 675.5271,453.5 677.002,453.5 678.477,453.5 679.9519,453.5 681.4269,453.5 682.9018,453.5 684.3768,453.5 685.8517,453.5 687.3267,453.5 688.8016,453.5 690.2766,453.5 691.7515,453.5 693.2264,453.5 694.7014,453.5 696.1764,453.5 697.6513,453.5 699.1263,453.5 700.6012,453.5 702.0762,453.5 703.5511,453.5 705.0261,453.5 706.501,453.5 707.976,453.5 709.4509,453.5 710.9258,453.5 712.4008,453.5 713.8758,453.5 715.3507,453.5 716.8257,453.5 718.3006,453.5 719.7756,453.5 721.2505,453.5 722.7255,453.5 724.2004,453.5 725.6754,453.5 727.1503,453.5 728.6252,453.5 730.1002,453.5 731.5751,453.5 733.0501,453.5 734.5251,453.5 736,453.5 "></polyline>
<polygon fill="url(#grad0)" stroke="none" points="0,453.5 0,1.5 0,1.5 1.47495,1.5 2.9499,1.5 4.42485,1.5 5.8998,1.5 7.37475,1.5 8.8497,1.5 10.32465,1.5 11.7996,1.5 13.27455,1.5 14.7495,1.5 16.22445,1.5 17.6994,1.5 19.17435,1.5 20.6493,1.5 22.12425,1.5 23.5992,1.5 25.07415,1.5 26.5491,1.5 28.02405,1.5 29.499,1.5 30.97395,1.5 32.4489,1.5 33.92385,1.5 35.3988,1.5 36.87375,1.5 38.3487,1.5 39.82365,1.5 41.2986,1.5 42.77355,1.5 44.2485,1.5 45.72345,1.5 47.1984,1.5 48.67335,1.5 50.1483,1.5 51.62325,1.5 53.0982,1.5 54.57315,1.5 56.0481,1.5 57.52305,1.5 58.998,1.5 60.47295,1.5 61.9479,1.5 63.42285,1.5 64.8978,1.5 66.37275,1.5 67.84769,1.5 69.32265,1.5 70.7976,1.5 72.27254,1.5 73.7475,1.5 75.22245,1.5 76.6974,1.5 78.17235,1.5 79.64729,1.5 81.12225,1.5 82.5972,1.5 84.07214,1.5 85.5471,1.5 87.02205,1.5 88.49699,1.5 89.97195,1.5 91.44689,1.5 92.92184,1.5 94.3968,1.5 95.87175,1.5 97.3467,1.5 98.82165,1.5 100.2966,1.5 101.7716,1.5 103.2465,1.5 104.7215,1.5 106.1964,1.5 107.6713,1.5 109.1463,1.5 110.6212,1.5 112.0962,1.5 113.5712,1.5 115.0461,1.5 116.521,1.5 117.996,1.5 119.4709,1.5 120.9459,1.5 122.4208,1.5 123.8958,1.5 125.3708,1.5 126.8457,1.5 128.3206,1.5 129.7956,1.5 131.2706,1.5 132.7455,1.5 134.2204,1.5 135.6954,1.5 137.1703,1.5 138.6453,1.5 140.1202,1.5 141.5952,1.5 143.0701,1.5 144.5451,1.5 146.0201,1.5 147.495,453.5 148.9699,453.5 150.4449,453.5 151.9198,453.5 153.3948,453.5 154.8698,453.5 156.3447,453.5 157.8196,453.5 159.2946,453.5 160.7695,453.5 162.2445,453.5 163.7194,453.5 165.1944,453.5 166.6693,453.5 168.1443,453.5 169.6192,453.5 171.0942,453.5 172.5691,453.5 174.0441,453.5 175.519,453.5 176.994,453.5 178.4689,453.5 179.9439,453.5 181.4188,453.5 182.8938,453.5 184.3687,453.5 185.8437,453.5 187.3186,453.5 188.7936,453.5 190.2686,453.5 191.7435,453.5 193.2184,453.5 194.6934,453.5 196.1684,453.5 197.6433,453.5 199.1183,453.5 200.5932,453.5 202.0681,453.5 203.5431,453.5 205.0181,453.5 206.493,453.5 207.968,453.5 209.4429,453.5 210.9178,453.5 212.3928,453.5 213.8678,453.5 215.3427,453.5 216.8176,453.5 218.2926,453.5 219.7675,453.5 221.2425,1.5 222.7175,1.5 224.1924,1.5 225.6673,1.5 227.1423,1.5 228.6172,1.5 230.0922,1.5 231.5672,1.5 233.0421,1.5 234.517,1.5 235.992,1.5 237.4669,1.5 238.9419,1.5 240.4168,1.5 241.8918,1.5 243.3667,1.5 244.8417,1.5 246.3167,1.5 247.7916,1.5 249.2665,1.5 250.7415,1.5 252.2164,1.5 253.6914,1.5 255.1664,1.5 256.6413,1.5 258.1162,1.5 259.5912,1.5 261.0661,1.5 262.5411,1.5 264.0161,1.5 265.491,1.5 266.9659,1.5 268.4409,1.5 269.9158,1.5 271.3908,1.5 272.8658,1.5 274.3407,1.5 275.8156,1.5 277.2906,1.5 278.7655,1.5 280.2405,1.5 281.7155,1.5 283.1904,1.5 284.6653,1.5 286.1403,1.5 287.6152,1.5 289.0902,1.5 290.5652,1.5 292.0401,1.5 293.515,1.5 294.99,1.5 296.4649,1.5 297.9399,1.5 299.4148,1.5 300.8898,1.5 302.3647,1.5 303.8397,1.5 305.3146,1.5 306.7896,1.5 308.2645,1.5 309.7395,1.5 311.2144,1.5 312.6894,1.5 314.1643,1.5 315.6393,1.5 317.1142,1.5 318.5892,1.5 320.0641,1.5 321.5391,1.5 323.014,1.5 324.489,1.5 325.9639,1.5 327.4389,1.5 328.9138,1.5 330.3888,1.5 331.8637,1.5 333.3387,1.5 334.8136,1.5 336.2886,1.5 337.7635,1.5 339.2385,1.5 340.7134,1.5 342.1884,1.5 343.6633,1.5 345.1383,1.5 346.6132,1.5 348.0882,1.5 349.5631,1.5 351.0381,1.5 352.513,1.5 353.988,1.5 355.4629,1.5 356.9379,1.5 358.4128,1.5 359.8878,1.5 361.3627,1.5 362.8377,1.5 364.3126,1.5 365.7876,1.5 367.2625,1.5 368.7375,453.5 370.2124,453.5 371.6874,453.5 373.1623,453.5 374.6373,453.5 376.1122,453.5 377.5872,453.5 379.0622,453.5 380.5371,453.5 382.0121,453.5 383.487,453.5 384.9619,453.5 386.4369,453.5 387.9119,453.5 389.3868,453.5 390.8618,453.5 392.3367,453.5 393.8116,453.5 395.2866,453.5 396.7616,453.5 398.2365,453.5 399.7115,453.5 401.1864,453.5 402.6613,453.5 404.1363,453.5 405.6112,453.5 407.0862,453.5 408.5612,453.5 410.0361,453.5 411.511,453.5 412.986,453.5 414.4609,453.5 415.9359,453.5 417.4109,453.5 418.8858,453.5 420.3607,453.5 421.8357,453.5 423.3106,453.5 424.7856,453.5 426.2606,453.5 427.7355,453.5 429.2104,453.5 430.6854,453.5 432.1603,453.5 433.6353,453.5 435.1103,453.5 436.5852,453.5 438.0602,453.5 439.5351,453.5 441.01,453.5 442.485,453.5 443.96,453.5 445.4349,453.5 446.9099,453.5 448.3848,453.5 449.8597,453.5 451.3347,453.5 452.8096,453.5 454.2846,453.5 455.7596,453.5 457.2345,453.5 458.7094,453.5 460.1844,453.5 461.6593,453.5 463.1343,453.5 464.6093,453.5 466.0842,453.5 467.5591,453.5 469.0341,453.5 470.509,453.5 471.984,453.5 473.459,453.5 474.9339,453.5 476.4088,453.5 477.8838,453.5 479.3587,453.5 480.8337,453.5 482.3087,453.5 483.7836,453.5 485.2585,453.5 486.7335,453.5 488.2084,453.5 489.6834,453.5 491.1584,453.5 492.6333,453.5 494.1082,453.5 495.5832,453.5 497.0581,453.5 498.5331,453.5 500.008,453.5 501.483,453.5 502.9579,453.5 504.4329,453.5 505.9078,453.5 507.3828,453.5 508.8577,453.5 510.3327,453.5 511.8076,453.5 513.2826,453.5 514.7576,453.5 516.2325,1.5 517.7075,1.5 519.1824,1.5 520.6573,1.5 522.1323,1.5 523.6072,1.5 525.0822,1.5 526.5571,1.5 528.0321,1.5 529.507,1.5 530.982,1.5 532.4569,1.5 533.9319,1.5 535.4069,1.5 536.8818,1.5 538.3568,1.5 539.8317,1.5 541.3066,1.5 542.7816,1.5 544.2565,1.5 545.7315,1.5 547.2064,1.5 548.6814,1.5 550.1563,1.5 551.6313,1.5 553.1063,1.5 554.5812,1.5 556.0562,1.5 557.5311,1.5 559.006,1.5 560.481,1.5 561.9559,1.5 563.4309,1.5 564.9058,1.5 566.3808,1.5 567.8557,1.5 569.3307,1.5 570.8056,1.5 572.2806,1.5 573.7556,1.5 575.2305,1.5 576.7054,1.5 578.1804,1.5 579.6553,1.5 581.1303,1.5 582.6052,1.5 584.0802,1.5 585.5551,1.5 587.0301,1.5 588.505,1.5 589.98,453.5 591.455,453.5 592.9299,453.5 594.4048,453.5 595.8798,453.5 597.3547,453.5 598.8297,453.5 600.3046,453.5 601.7796,453.5 603.2545,453.5 604.7295,453.5 606.2044,453.5 607.6794,453.5 609.1544,453.5 610.6293,453.5 612.1042,453.5 613.5792,453.5 615.0541,453.5 616.5291,453.5 618.004,453.5 619.479,453.5 620.9539,453.5 622.4289,453.5 623.9038,453.5 625.3788,453.5 626.8537,453.5 628.3287,453.5 629.8036,453.5 631.2786,453.5 632.7535,453.5 634.2285,453.5 635.7034,453.5 637.1783,453.5 638.6533,453.5 640.1283,453.5 641.6032,453.5 643.0782,453.5 644.5531,453.5 646.0281,453.5 647.5031,453.5 648.978,453.5 650.4529,453.5 651.9279,453.5 653.4028,453.5 654.8777,453.5 656.3527,453.5 657.8277,453.5 659.3026,453.5 660.7776,453.5 662.2525,453.5 663.7275,453.5 665.2024,453.5 666.6774,453.5 668.1523,453.5 669.6273,453.5 671.1022,453.5 672.5771,453.5 674.0521,453.5 675.5271,453.5 677.002,453.5 678.477,453.5 679.9519,453.5 681.4269,453.5 682.9018,453.5 684.3768,453.5 685.8517,453.5 687.3267,453.5 688.8016,453.5 690.2766,453.5 691.7515,453.5 693.2264,453.5 694.7014,453.5 696.1764,453.5 697.6513,453.5 699.1263,453.5 700.6012,453.5 702.0762,453.5 703.5511,453.5 705.0261,453.5 706.501,453.5 707.976,453.5 709.4509,453.5 710.9258,453.5 712.4008,453.5 713.8758,453.5 715.3507,453.5 716.8257,453.5 718.3006,453.5 719.7756,453.5 721.2505,453.5 722.7255,453.5 724.2004,453.5 725.6754,453.5 727.1503,453.5 728.6252,453.5 730.1002,453.5 731.5751,453.5 733.0501,453.5 734.5251,453.5 736,453.5 736,453.5 "></polygon>
</g>
<g id="Key">
<rect x="3" y="3" width="59" height="16" rx="8" ry="8" fill="#FFFFFF" fill-opacity="0.7490196" stroke="none"></rect>
<ellipse cx="11" cy="11" rx="7" ry="7" fill="#1472F0" fill-opacity="0.5019608" stroke="none"></ellipse>
<text x="21.5" y="16.2" fill="#1472F0" fill-opacity="1" font-family="sans-serif" font-size="14">data</text>
</g>
<defs>
<linearGradient id="grad0" x1="0%" y1="0%" x2="0%" y2="200%">
<stop offset="0%" stop-color="#1472F0" stop-opacity="0.1882353"></stop>
<stop offset="50%" stop-color="#1472F0" stop-opacity="0.02352941"></stop>
<stop offset="100%" stop-color="#1472F0" stop-opacity="0.1882353"></stop>
</linearGradient>
</defs>
</svg>
